<?xml version="1.0" encoding="utf-8"?>
<!-- Generator: Adobe Illustrator 27.3.1, SVG Export Plug-In . SVG Version: 6.00 Build 0)  -->
<svg version="1.0" xmlns="http://www.w3.org/2000/svg" xmlns:xlink="http://www.w3.org/1999/xlink" x="0px" y="0px"
	 viewBox="0 0 2000 1200" enable-background="new 0 0 2000 1200" xml:space="preserve">
<g id="BACKGROUND">
</g>
<g id="OBJECTS">
	<g id="SAyHsB_1_">
	</g>
	<g>
		<g>
			<path fill="none" stroke="#3A3A3A" stroke-miterlimit="10" d="M2045.72,923.04c-13.97,5.05-27.86,10.33-41.92,15.11
				c-39.58,13.44-77.78,10.64-115.38-8.54c-13.3-6.78-26.65-13.14-38.19-22.69c-17.22-14.23-25.85-33.49-30.79-55.16
				c-2.77-12.13-6.63-24.13-11.34-35.63c-7.43-18.15-23.27-25.39-40.88-26.48c-22.61-1.39-45.38-0.53-68.07-0.26
				c-11.64,0.14-23.3,1.84-34.91,1.51c-13.7-0.38-27.35-2.95-41.04-3.16c-14.17-0.22-27.17,4.43-37.52,14.96
				c-7.87,8.01-15.54,15.9-26.14,20.63c-26.21,11.69-45.07-4.09-47.4-29.55c-2.15-23.55,9.12-38.97,27.36-49.75
				c23.74-14.03,30.13-35.76,30.62-61.69c0.52-27.32-4.45-53.71-9.59-80.27c-3.06-15.84-5.94-32.05-5.96-48.1
				c-0.04-35.2-18.49-49.11-43.18-54.98c-14.19-3.37-28.99-4.42-43.59-5.51c-22.66-1.68-45.43-1.91-68.07-3.85
				c-27.12-2.32-54.1-6.2-81.21-8.63c-23-2.06-44.47,2.31-63.82,16.66c-22.52,16.7-45.72,32.47-68.9,48.22
				c-18.63,12.66-27.69,31.21-31.15,52.7c-2.36,14.66-2.3,29.7-3.78,44.53c-2.08,20.83-3.24,41.89-7.32,62.32
				c-3.78,18.92-18.88,27.83-36.28,32.11c-25.25,6.2-50.82,11.2-75.88,18.09c-28.98,7.97-54.58,2.05-78.67-15.28
				c-26.85-19.32-54.02-38.19-81.18-57.05c-5.8-4.03-12.16-7.22-18.29-10.76c-10.94-6.33-16.51-7.26-27.7,2.94
				c-11.32,10.31-19.39,23.66-25.61,38.04c-10.59,24.5-14.64,50.74-18.88,76.73c-5.61,34.43-19.59,65.07-37.01,94.4
				c-13.7,23.07-26.71,46.45-32.07,73.17c-2.4,11.98-3.82,24.3-4.37,36.52c-1.11,24.93-1.15,49.92-1.96,74.87
				c-0.65,20.09-14.64,34.94-35.73,39.27c-29.43,6.05-58.65,13.27-88.24,18.32c-15.1,2.58-30.95,3.25-46.17,1.73
				c-23.23-2.31-37.1-18.6-47.21-38.81c-14.44-28.88-28.7-57.86-43.75-86.41c-9.46-17.93-19.28-35.81-30.64-52.51
				c-17.55-25.81-34.2-21.07-51.18-4.5c-12.48,12.19-23.46,25.99-36.04,38.06c-12.43,11.91-26.15,22.18-43.49,26.07
				c-19.57,4.38-38,1.96-54.97-9.03c-14.72-9.53-28.8-20.14-43.79-29.18c-12.74-7.69-26.6-12.42-41.78-13.79
				c-20.03-1.81-38.39,2.18-55.91,11.79c-8.02,4.4-16.35,8.21-24.41,12.55c-18.39,9.92-37.34,9.8-55.8,1.54
				c-18.45-8.25-36.17-18.21-54.21-27.42"/>
			<path fill="none" stroke="#3A3A3A" stroke-miterlimit="10" d="M1318.55-83.36c3.07,16.7,2.54,33.32-0.85,49.92
				c-2.44,11.94-9.97,20.46-19.34,26.55c-21.37,13.87-42.81,27.49-68.82,31.59c-33.2,5.23-60.37-4.74-81.99-30.59
				c-4.47-5.34-7.64-11.81-11.45-17.74c-10.58-16.46-23.15-23.28-41.85-18.52c-18.56,4.73-36.62,11.44-55.07,16.64
				c-18.16,5.11-35.52,11.92-52.45,20.39c-12.69,6.35-18.8,17.08-22.42,29.68c-3.22,11.19,8.97,26.28,20.78,26.64
				c8.72,0.27,17.46,0.07,26.19,0.05c25.38-0.07,40.47,13.52,47,34.81c3.66,11.94,8,24.27,8.3,36.52
				c0.31,12.76-2.19,26.49-11.76,36.43c-9.92,10.29-22.26,12.25-35.69,8.15c-10.15-3.1-20.39-5.86-30.54-8.96
				c-14.45-4.42-27.15-2.12-35.07,16c-7.16,16.36-14.95,32.52-23.64,48.08c-5.85,10.47-13.15,20.26-20.85,29.44
				c-18.97,22.62-30.93,49.54-45.19,75.03c-8.51,15.23-17.69,29.81-33.35,38.11c-8.53,4.52-17.94,7.33-26.98,10.86
				c-5.5,2.14-11.4,3.53-16.51,6.38c-10.98,6.13-13.53,20.72-5.1,34.5c5.88,9.62,13.29,18.4,20.85,26.77
				c11.51,12.75,21.16,26.55,24.05,43.83c1.14,6.83,0.06,14.46-1.63,21.3c-5.66,22.89-19.06,39.59-38.97,51.98
				c-19.11,11.89-37.85,24.69-52.55,42.53c-7.7,9.35-16.19,18.06-23.43,27.75c-11.15,14.93-26.92,21.46-43.79,22.66
				c-26.6,1.9-53.29,0.82-79.45-6.56c-19.6-5.52-38.09-13.16-55.91-23.18c-23.81-13.4-48.28-24.87-75.83-28.96
				c-26.83-3.99-46.2-19.85-57.62-45.19c-5.72-12.69-11.59-25.34-16.47-38.37c-4.5-12.01-2.29-24.01,4.32-34.64
				c10.68-17.18,22.65-33.55,32.87-51c8.37-14.28,13.72-29.84,13.46-47.13c-0.19-12.9-5.78-21.59-16.79-26.67
				c-19.88-9.17-41.06-10.97-61.85-5.91c-16.86,4.11-24.76,18.82-27.88,35.28c-4.65,24.5-2.11,48.63,5.93,72.19
				c1.7,4.97,2.62,10.22,4.46,15.12c5.93,15.81,2.57,29.93-6.08,43.76c-12.29,19.67-24.69,39.34-35.66,59.79
				c-9.83,18.32-14.09,38.66-14.08,59.6c0.01,14.86,0.58,29.75,1.81,44.56c0.76,9.18,6.12,15.69,14.61,19.75
				c6.11,2.92,11.99,6.59,17.46,10.66c12.3,9.16,15.64,23.89,8.79,36.46c-4.63,8.51-12.71,10.23-18.08,2.49
				c-6.04-8.71-11.85-18.33-14.73-28.45c-5.35-18.81-16.51-26.06-35.24-28c-24.34-2.52-48.38-8.29-72.49-12.94
				c-20.23-3.9-40.28-8.52-61.12-8.07c-42.8,0.93-70.95,25.68-78.34,67.88c-4.17,23.84-5.53,48.18-9.12,72.14
				c-2.87,19.16-3.29,38.63-10.78,57.25c-6.51,16.19-17.72,26.49-31.98,33.39c-11.79,5.7-24.91,8.41-38.26,8.34"/>
			<path fill="none" stroke="#3A3A3A" stroke-miterlimit="10" d="M2045.72,944.43c-9.31,2.67-18.64,5.29-27.93,8.03
				c-18.32,5.41-36.46,11.19-55.87,11.74c-20.25,0.57-39.66-2.63-58.49-9.98c-23.67-9.24-47.07-18.94-68.16-33.77
				c-20.26-14.24-30.5-34.62-36.65-58.02c-5.18-19.73-12.48-38.3-33.19-46.2c-7.47-2.85-15.58-4.24-23.52-5.42
				c-22.74-3.38-45.06,0.64-67.18,5.36c-19.43,4.15-37.21,12.65-52.32,25.84c-21.01,18.33-46.13,25.47-72.55,29.21
				c-12.72,1.8-25.57,3.03-38.4,3.53c-15.19,0.6-24.71-8.1-27-23.94c-2.57-17.79-4.15-35.75-7.18-53.45
				c-3.99-23.26,1.74-43.98,15.19-62.27c8.49-11.55,18.49-22.1,28.72-32.12c14.62-14.32,20.56-31.62,20.92-51.83
				c0.41-23.47-4.72-46.05-9.84-68.61c-2.67-11.78-6.47-23.34-10.42-34.77c-5.78-16.76-18.98-25.87-34.9-29.1
				c-18.92-3.85-38.3-5.55-57.56-7.33c-14.48-1.34-29.12-2.3-43.63-1.72c-25.64,1.03-51.32,2.48-76.78,5.57
				c-10.2,1.24-20.18,6.57-29.66,11.3c-22.91,11.44-45.46,23.63-68.16,35.51c-21.42,11.21-32.53,29.51-35.84,53.48
				c-3.87,28.05-1.69,55.7,5.5,82.85c2.46,9.28,6.9,18.12,11.23,26.75c10.49,20.94,21.3,41.73,32.25,62.42
				c11.41,21.57,30.51,34.72,50.65,46.27c25.08,14.39,50.45,28.27,75.93,41.92c21.03,11.27,43.06,19.56,67.18,20.61
				c9.61,0.42,19.2,1.45,28.81,1.68c14.4,0.34,24.66,11.24,25.43,25.91c2.06,39.4-13.52,72.09-35.8,102.59
				c-7.03,9.62-13.07,20.02-19.27,30.26c-11.8,19.49-9.75,40.15-1.48,59.57c12.61,29.63,34.75,49.6,65.14,59.95
				c24.29,8.27,44.16,0.83,62.05-16.09c8.77-8.3,17.23-17.3,27.17-23.87c23.08-15.25,46.94-12.56,68.64,2.69
				c22.89,16.09,44.3,34.35,66.55,51.41c26.95,20.66,54.2,40.9,81.12,61.6c14.97,11.51,27.58,25.18,35.91,42.7
				c6.02,12.67,12.82,24.95,19.06,37.51c1.35,2.72,1.82,5.91,2.69,8.88"/>
			<path fill="none" stroke="#3A3A3A" stroke-miterlimit="10" d="M910,1341.11c-0.58-11.89-0.87-23.8-1.81-35.65
				c-1.64-20.61,7.94-35.84,21.91-49.01c11.81-11.13,23.82-22.04,35.77-33.01c35.83-32.87,70.97-66.74,111.07-94.17
				c21-14.36,44.37-24.78,70.5-26.2c19.5-1.06,38.99-2.43,58.49-3.52c25.64-1.43,51.48-2.21,74.99-14.44
				c8.36-4.35,16.73-9.54,23.44-16.11c11.31-11.06,10.04-27.08-2.49-40.71c-11.57-12.58-26.64-19.84-41.8-26.88
				c-16.71-7.75-34.24-14.34-49.54-24.39c-22.96-15.08-36.5-38.44-44.65-64.72c-6.67-21.51-11.56-43.62-18.71-64.94
				c-5.04-15.04-11.67-29.7-19.12-43.67c-15.42-28.89-39.35-33.28-67.01-25.87c-17.22,4.61-32.03,14.3-46.3,24.86
				c-6.93,5.13-13.72,10.51-20.99,15.09c-16.38,10.3-29.47,5.9-39.37-11.42c-8.04-14.08-16.01-28.57-26.36-40.82
				c-15.35-18.17-35.02-31.04-58.21-36.67c-19.79-4.81-39.36,4.89-51.05,27.71c-7.76,15.15-12.13,32.27-16.86,48.85
				c-6.99,24.49-11.69,49.73-19.86,73.76c-4.47,13.17-13.14,25.24-21.53,36.57c-14.27,19.26-23.78,40.67-24.52,64.36
				c-0.5,15.94,3.85,32.26,7.47,48.07c4.47,19.51,9.6,38.7,11.48,58.85c1.64,17.53,2.23,34.62-2.07,51.74
				c-4.78,19.02-21.57,30.83-34.89,28.32c-8.35-1.57-16.63-4.45-24.42-7.97c-14.37-6.49-28.86-12.57-44.6-13.95
				c-10.11-0.89-20.42-0.94-30.53-0.02c-29.5,2.69-57.53,13.19-86.52,18.08c-31.45,5.31-50.02-6.27-65.07-40.66
				c-11.51-26.3-19.12-54.37-30.31-80.84c-9.07-21.47-19.55-42.68-39.82-56.34c-7.99-5.38-16.3-4.82-24.43-1.62
				c-15.79,6.21-27.57,18.48-40.13,29.39c-13.3,11.56-27.89,21.1-44.65,25.52c-27.54,7.25-51.99-0.71-74.25-18.32
				c-13.06-10.33-26.42-20.85-41.09-28.31c-27.9-14.19-53.15-5.91-75.78,13.89c-8.94,7.82-17.56,16.15-27.16,23.03
				c-14.12,10.12-29.57,6.84-43.41-0.11c-23.46-11.79-46.1-25.29-69.11-38.04c-1.37-0.76-2.9-1.21-4.35-1.8"/>
			<path fill="none" stroke="#3A3A3A" stroke-miterlimit="10" d="M888.18,1340.22c-4.07-12.78-7.71-25.72-12.31-38.3
				c-10.54-28.87-2.02-42.31,19.35-57.9c21.28-15.52,43.74-29.42,64.37-45.77c29.21-23.16,57.2-47.91,85.73-71.97
				c18.29-15.43,35.53-32.94,59.41-39.01c18.36-4.66,37.17-7.46,55.82-10.88c16.85-3.1,34.08-4.46,49.77-12.48
				c21.05-10.76,17.93-21.71,6.82-36.46c-3.7-4.91-9.16-8.44-13.82-12.6c-30.95-27.63-50.59-63.19-67.13-100.77
				c-8.93-20.28-16.45-41.21-25.62-61.37c-4.59-10.09-10.25-20.22-17.54-28.35c-9.15-10.21-27.49-10.33-39.8-1.96
				c-6.18,4.2-12.41,8.75-17.4,14.28c-20.15,22.34-45.23,36.63-72.62,47.02c-20.31,7.7-34.04,21.56-41.9,41.99
				c-9.33,24.26-20.08,48-40.32,64.84c-12.63,10.52-27.13,18.7-40.84,27.86c-11.84,7.91-24.19,14.82-33.35,26.6
				c-9.55,12.29-13.6,26.35-15.36,41.18c-2.4,20.12-3.23,40.44-5.53,60.58c-1.97,17.17-6.42,33.98-16.61,48.04
				c-14.89,20.56-38.17,30.65-66.98,15.1c-15.33-8.27-29.59-18.57-44.65-27.39c-17.95-10.5-37.63-12.05-57.55-8.87
				c-27.12,4.33-50.4,17.69-72.55,33.64c-11.2,8.06-23.13,15.09-34.86,22.37c-17.86,11.08-43.99,7.58-50.64-24.92
				c-5.11-24.99-9.85-50.08-15.88-74.84c-4.9-20.14-10.82-40.09-17.57-59.67c-2.88-8.36-8.13-16.34-13.88-23.1
				c-8.59-10.09-18.68-10.77-29.46-3.73c-11.61,7.58-20.27,18.02-21.38,32.11c-0.57,7.21,2.18,15.69,5.9,22.1
				c16.6,28.57,33.48,57.02,51.53,84.65c8.29,12.68,19.23,23.63,29.48,34.88c10.85,11.9,11.67,18.57,5.31,33.12
				c-8.56,19.58-23.82,33.35-38.82,46.87c-14.21,12.81-26.11,27.11-36.4,43.09"/>
			<path fill="none" stroke="#3A3A3A" stroke-miterlimit="10" d="M-46.77,818.75c0.87-1.19,1.5-3.01,2.65-3.47
				c23.53-9.39,31.83-30.14,35.4-52.74c3.38-21.42,3.86-43.32,5.59-65.02c1.18-14.86,1.95-29.76,3.61-44.56
				c1.38-12.28,13.81-23.12,27.81-25.9c18.65-3.71,37.22-7.87,55.89-11.46c7.47-1.44,15.11-1.93,22.68-2.75
				c16.87-1.82,33.75-3.58,50.63-5.36c23.88-2.52,38.08-17.7,45.03-39.34c5.33-16.62,8.14-34.23,10.66-51.61
				c3.98-27.41,9.69-54.28,19.39-80.2c8.39-22.43,14.49-45.27,15.92-69.52c1.69-28.64,2.96-57.5,13.71-84.72
				c6.65-16.83,13.69-33.58,19.06-50.85c8.08-26,10.84-52.98,8.76-80.15c-1.76-22.95-10.28-32.11-32.17-36.38
				c-4.72-0.92-10.21-0.64-14.74,0.91c-15.01,5.13-30.63,9.43-44.41,17.07c-36.64,20.31-72.29,42.53-104.83,69.33
				c-22.33,18.38-43.66,38.02-65.59,56.9c-24.19,20.83-47.77,42.53-75.92,57.97"/>
			<path fill="none" stroke="#3A3A3A" stroke-miterlimit="10" d="M571.29-83.36c-4.3,33.96-13.19,65.63-42.8,86.43
				c-20.29,14.25-39.48,30.33-62.01,40.93c-14.56,6.85-29.59,12.7-44.48,18.81c-20.18,8.28-36.73,21.73-50.49,38.47
				c-15.37,18.71-29.15,38.81-38.33,61.49c-5.81,14.37-9.63,29.59-14.16,44.49c-7.92,26.09-19.75,50.47-31.58,74.8
				c-8.27,17.01-13.88,34.54-14.7,53.55c-0.63,14.56-0.63,29.17-1.88,43.67c-2.02,23.51-5.8,46.73-12,69.57
				c-12.25,45.07-23.43,90.46-36.17,135.38c-4.5,15.86-11.06,32-27.74,39.09c-8.51,3.62-17.85,6.28-27,7.04
				c-13.87,1.16-27.95-0.4-41.87,0.47c-21.04,1.32-42.04,3.19-62.02,11.34c-27.97,11.41-43.23,32.73-47.95,62.48
				c-4.24,26.72-7.29,53.66-12.56,80.16c-3.74,18.8-10.1,37.45-27.77,47.95c-7.01,4.16-15.57,5.59-23.43,8.27"/>
			<path fill="none" stroke="#3A3A3A" stroke-miterlimit="10" d="M2045.72,987.22c-20.37,5.05-40.67,10.44-61.13,15.06
				c-19.03,4.29-38.4,3.61-56.63-2.86c-28.01-9.93-55.7-20.96-82.92-32.95c-20.03-8.83-39.29-19.58-58.53-30.18
				c-14.81-8.16-25.72-20.66-34.16-35.51c-3.48-6.12-7.76-11.77-11.25-17.89c-8.18-14.36-26.3-19.77-42.92-9.04
				c-10.93,7.05-19.62,15.97-27.99,25.87c-16.46,19.46-37.73,32.76-60.16,43.65c-33.89,16.44-58.62,41.86-74.85,76.01
				c-4.15,8.74-6.94,18.23-9.65,27.59c-3.48,12.05,6.02,21.09,20.84,22.44c20.53,1.88,41.31,2.16,61.17,9.49
				c18.2,6.72,34.28,16.67,48.87,29.51c21.42,18.85,42.17,38.67,64.86,55.79c16.47,12.43,35.89,21.22,56.5,24.12
				c16.35,2.31,33.14,2.31,49.71,1.95c24.51-0.54,35.43,16.08,37.6,36.72c2.13,20.29,5.4,40.17,18.18,57.13
				c10.66,14.15,25.67,21.73,40.2,30.32c11.37,6.71,22.5,13.96,29.73,25.77"/>
			<path fill="none" stroke="#3A3A3A" stroke-miterlimit="10" d="M1767.25-83.36c-7.32,17.44-20.55,28.36-37.56,34.7
				c-21.44,7.99-43.11,15.33-64.56,23.3c-18.74,6.96-36.28,16.6-45.09,35.76c-6.6,14.36-11.73,29.84-14.85,45.37
				c-6.25,31.12-7.64,62.69-3.98,94.44c1.11,9.67,0.22,19.59,0.16,29.4c-0.26,42.88,11.77,82.77,30.93,120.14
				c11.67,22.76,26.67,43.8,40.75,65.21c15,22.82,26.94,46.95,32.07,74.07c1.76,9.33,1.29,19.09,2.9,28.47
				c2.62,15.32,5.94,31.01,20.91,39.06c12.62,6.78,26.36,10.58,40.93,7.29c20.9-4.72,37.25,3.37,49.62,19.76
				c13.75,18.21,26.5,37.21,39.38,56.08c9.07,13.3,11.17,28.9,13.22,44.52c1.99,15.2,3.89,30.47,7.07,45.44
				c5.55,26.1,23.92,40.51,47.04,48.91c35.65,12.96,72.89,19.62,109.94,26.89c3.19,0.63,6.4,1.19,9.6,1.79"/>
			<path fill="none" stroke="#3A3A3A" stroke-miterlimit="10" d="M1698.28-82.47c-7.28,5.65-14.01,12.3-21.94,16.71
				c-13.23,7.37-26.96,14.01-40.97,19.68c-24.22,9.79-36.66,28.21-41.02,53.63c-3.83,22.33-9.61,44.43-11.79,66.9
				c-2.75,28.37-4.7,57.11-3.42,85.52c2.05,45.53,15.9,88.51,35.59,129.15c12,24.77,26.11,48.51,40.02,72.26
				c14.07,24.02,24.22,48.99,21.59,77.61c-1.01,11.06-2.86,22.12-5.22,32.97c-5.88,27.06,3.58,48.01,23.67,65.1
				c24.97,21.24,54.32,34.29,83.75,47.37c20.2,8.98,41.15,17.19,52.52,39.04c7.94,15.26,12.13,31.68,16.69,48.13
				c3.38,12.17,8.34,23.91,12.94,35.69c8.19,20.96,26.3,30.09,45.44,35.31c37.21,10.15,74.94,18.36,112.54,26.98
				c8.84,2.03,18.01,2.5,27.03,3.69"/>
			<path fill="none" stroke="#3A3A3A" stroke-miterlimit="10" d="M1765.5,1341.11c-2.83-21.87-15.17-38.89-29.06-54.13
				c-18.76-20.58-38.7-40.18-59.34-58.81c-12.84-11.59-28.84-19.07-46.07-21.41c-12.37-1.68-23.65,3.72-34,10.47
				c-13.98,9.12-27.61,18.71-43.63,24.15c-24.8,8.42-49.88,8.49-75.09,3.37c-21.04-4.28-41.82-10-62.9-14
				c-20.07-3.81-38.11,1.52-54.18,14.88c-16.85,14.01-23.97,34.85-36.43,51.92c-5.33,7.29-11.27,13.09-19.34,16.86
				c-14.24,6.65-26.53,0.72-37.4-7.39c-15.25-11.38-22.22-28.23-24.55-47.03c-1.46-11.85-1.9-23.84-3.65-35.63
				c-3.17-21.31-16.1-35.21-33.9-45.55c-32.15-18.69-64.49-13.71-95.94,0.37c-27.7,12.41-49.6,33.11-69.24,56.62
				c-22.53,26.96-43.12,55.15-59.12,86.65c-2.99,5.89-4.75,12.43-7.08,18.67"/>
			<path fill="none" stroke="#3A3A3A" stroke-miterlimit="10" d="M-46.77,471.1c11.06,16.05,22.64,31.75,33.01,48.24
				c8.65,13.75,16.07,28.31,23.69,42.71c10.93,20.66,26.9,31.55,50.68,31.41c25.83-0.14,51.37-1.78,76.84-6.34
				c28.07-5.03,42.35-23.35,47.81-50.09c2.75-13.46,2.85-27.47,5.61-40.93c3.88-18.89,8.29-37.75,13.98-56.13
				c7.01-22.66,18.32-43.91,21.59-67.82c1.62-11.86,2.53-23.84,4.5-35.63c2.49-14.93,5.05-29.91,8.79-44.54
				c4.84-18.9,11.41-37.34,16.26-56.25c4.31-16.81,4.44-34.04-0.85-50.72c-3.82-12.05-14.33-21-27.8-23.24
				c-29.14-4.85-54.29,7.26-78.43,20.78c-31.88,17.86-59.26,42.17-86.74,66.38c-34.75,30.6-70.81,59.65-106.34,89.33
				c-0.98,0.82-2.3,1.22-3.47,1.81"/>
			<path fill="none" stroke="#3A3A3A" stroke-miterlimit="10" d="M2044.85,1013.07c-20.66,5.94-41.13,12.73-62.04,17.55
				c-15.44,3.55-31.35,2.19-46.18-4.24c-50.99-22.11-101.77-44.75-152.85-66.66c-19.17-8.22-38.85-15.25-58.47-22.31
				c-10.65-3.83-21.62-2.81-32.25,0.81c-30.71,10.45-57.78,27.49-78.19,52.89c-15.66,19.49-16.92,38.42,4.75,58.62
				c24.01,22.39,47.25,45.64,70.81,68.53c14.46,14.06,29.88,26.98,48.1,35.47c15.05,7.02,30.94,10.55,47.95,8.36
				c23.2-2.99,46.5-6.28,69.83-6.94c28.92-0.82,45.4,20.09,45.58,46c0.11,15.76,1.43,31.6,3.51,47.22
				c1.84,13.87,10.37,24.33,20.77,32.98c12.69,10.55,25.93,20.42,38.26,31.38c8.29,7.37,13.01,17.49,15.84,28.38"/>
			<path fill="none" stroke="#3A3A3A" stroke-miterlimit="10" d="M1791.69,1341.11c-3.62-20.93-13.53-38.53-27.98-53.44
				c-28.73-29.65-57.54-59.25-90.78-83.79c-15.61-11.53-32.14-21.38-51.48-24.98c-11.07-2.06-20.84,2.08-29.58,8.15
				c-8.88,6.16-16.8,13.76-25.45,20.31c-24.36,18.45-51.47,25.47-81.11,17.71c-21.74-5.7-43.08-12.99-64.65-19.41
				c-11.59-3.45-23.53-5.83-34.84-10.02c-14.82-5.49-29.94-10.93-43.48-18.95c-11.87-7.02-24.39-8.84-36.9-9.04
				c-25.9-0.42-50.76-5.53-75.02-13.87c-18.24-6.27-36.83-11.19-55.92-11.18c-41.19,0.03-77.14,15.78-109.11,41.65
				c-33.44,27.06-60.52,60.17-86.58,94.36c-11.52,15.1-21.08,30.99-26.85,49.17c-1.28,4.03-1.81,8.3-2.68,12.46"/>
			<path fill="none" stroke="#3A3A3A" stroke-miterlimit="10" d="M-46.77,435.44c8.15,10.7,16.87,21,24.31,32.18
				c11.84,17.79,22.66,36.27,34.23,54.25c9.34,14.5,19.89,27.83,35.72,35.73c17.09,8.54,35.12,8.1,53.26,6.11
				c11.15-1.22,22.15-3.1,32.36-8.72c17.94-9.87,24.97-26.65,27.73-45.59c5.36-36.74,16.19-71.62,31.55-105.18
				c9.32-20.37,12.78-42.45,17.51-64.16c4.54-20.83,9.01-41.67,14.02-62.38c4.4-18.2,8.56-36.41,6.83-55.28
				c-2-21.72-20.2-35.57-44.46-31.29c-28.89,5.1-52.67,20.53-74.96,38.54C89.64,247.19,68.41,265.37,47.6,284
				c-29.43,26.36-58.31,53.35-87.33,80.19c-2.73,2.52-4.71,5.88-7.04,8.85"/>
			<path fill="none" stroke="#3A3A3A" stroke-miterlimit="10" d="M-46.77,1011.29c5.82,3.57,12.01,6.63,17.39,10.79
				c14.18,11,27.7,22.91,42.08,33.63c10.54,7.86,21.33,16.08,33.22,21.17c21.75,9.31,42.4,4.41,59.95-11.38
				c7.21-6.49,13.24-14.46,19.26-22.2c6.26-8.06,14.33-12.81,23.64-16.02c7.44-2.57,13.97,0.48,20.03,3.73
				c20.79,11.17,32.3,30.09,37.02,52.6c1.45,6.9-3.6,15.51-6.53,22.99c-2.89,7.38-6.76,14.37-10.36,21.44
				c-6,11.75-8.44,24.52-8.52,37.45c-0.13,19.9,0.76,39.83,1.61,59.72c1.28,29.69-18.52,53.94-47.14,59.99
				c-21.26,4.49-42.61,4.15-63.75,2.79c-16.02-1.03-31.54-1.22-47.18,2.25c-20.58,4.57-37.85,15.34-53.15,29.56
				c-6.37,5.92-11.73,12.97-17.55,19.51"/>
			<path fill="none" stroke="#3A3A3A" stroke-miterlimit="10" d="M1823.99-82.47c-20.41,12.48-22.84,46.17-5.2,64.14
				c11.33,11.54,22.3,23.25,30.59,37.44c11.97,20.48,18.16,42.91,22.62,66.01c4.45,23.01,2.77,46.32,3.68,69.52
				c0.83,21.13,3.34,42.2,5.02,63.3c0.71,8.9,1.41,17.82,1.72,26.74c0.72,20.79,0.72,41.63,1.91,62.39
				c1.62,28.23,20.23,44.69,47.89,45.68c29.19,1.05,55.39-9.61,82.06-18.96c10.53-3.7,20.96-7.7,31.44-11.56"/>
			<path fill="none" stroke="#3A3A3A" stroke-miterlimit="10" d="M1947.95-82.47c-1.16,0.59-2.6,0.92-3.45,1.82
				c-16.06,16.88-33.09,32.95-47.75,51.03c-13.67,16.85-18.75,36.91-14.56,59.52c3.7,19.94,5.73,40.3,7.06,60.57
				c1.49,22.82,0.57,45.8,2.19,68.61c1.56,22.07,4.81,44.02,7.69,65.97c2.31,17.57,5.21,35.07,7.78,52.6
				c1.66,11.33,4.42,22.36,10.56,32.04c7.68,12.12,19.7,16.51,33.1,17.87c22.04,2.22,42.89-3.88,63.71-9.84
				c10.54-3.02,20.96-6.49,31.44-9.76"/>
			<path fill="none" stroke="#3A3A3A" stroke-miterlimit="10" d="M2045.72,789.33c-14.55-2.67-29.12-5.26-43.64-8.04
				c-29.11-5.58-58.05-12.37-87.35-16.52c-18.92-2.68-38.36-1.94-57.56-2.03c-9.8-0.04-14.37,6.06-16.63,18.56
				c-4.27,23.71-1.23,47.16,2.84,70.4c4.03,23.03,17.52,40.13,36.53,52.55c16.36,10.69,33.8,18.56,53.15,22.62
				c23.62,4.95,46,1.41,68.12-6.55c14.94-5.37,29.7-11.24,44.54-16.88"/>
			<path fill="none" stroke="#3A3A3A" stroke-miterlimit="10" d="M1972.39-82.47c-3.49,3.57-7.22,6.93-10.44,10.73
				c-15.51,18.34-31.81,36.1-46.05,55.43c-14.38,19.52-17.87,42.34-14.42,66.69c2.72,19.17,4.07,38.57,5.32,57.92
				c1.13,17.49,0.23,35.17,2.13,52.56c2.39,21.82,5.9,43.6,10.49,65.04c3.19,14.89,8.64,29.33,13.78,43.71
				c7.87,22.05,23.95,32.38,47.04,33.2c22.28,0.79,43.33-4.93,64.61-9.99"/>
			<path fill="none" stroke="#3A3A3A" stroke-miterlimit="10" d="M1732.33,1341.11c-6.03-31.6-22.91-57.02-44.67-79.19
				c-12.24-12.47-26.54-21.79-44.32-25.41c-12.75-2.6-23.27,1.71-34.09,6.58c-12.87,5.79-25.43,12.33-38.48,17.66
				c-14.46,5.91-29.85,7.02-45.32,8.42c-28.78,2.62-56.26-3.3-83.85-9.98c-12.04-2.91-24.37-4.46-36.63-0.96
				c-14.93,4.26-26.7,12.89-33.11,27.63c-7.3,16.79-14.04,33.84-21.03,50.77c-0.51,1.22-1.15,2.38-1.74,3.57"/>
			<path fill="none" stroke="#3A3A3A" stroke-miterlimit="10" d="M-46.77,1034.47c7.57,6.54,15.37,12.81,22.64,19.67
				c12.7,11.97,24.72,24.72,37.68,36.39c17.67,15.9,38.27,25.74,61.89,28.69c8.78,1.1,17.65,2.21,26.16,4.53
				c20.17,5.51,33.42,22.71,34.92,44.43c0.76,10.98,2.45,22.11,1.43,32.95c-1.05,11.15-3.04,22.99-7.95,32.79
				c-7.08,14.11-21.68,18.82-36.25,20.51c-13.85,1.61-27.91,1.98-41.88,1.88c-25.28-0.18-48.85,6.65-71.54,17.16
				c-9.58,4.44-18.67,10-27.98,15.05"/>
			<path fill="none" stroke="#3A3A3A" stroke-miterlimit="10" d="M862.86,1341.11c-13.45-23.75-30.48-44.41-51.54-61.46
				c-9.91-8.01-20.76-10.25-33.2-5.59c-8.96,3.35-18.44,5.75-27.89,7.16c-20.73,3.09-35.78-9-50.62-21.21
				c-17.41-14.33-34.23-29.56-52.65-42.38c-9.45-6.57-21.65-11.56-32.93-12.31c-22.21-1.46-39.79,10.15-53.17,27.96
				c-10.24,13.63-15.9,29.62-17.15,46.35c-1.36,18.07,6.07,33.49,20.65,44.48c7.59,5.72,15.67,10.76,23.52,16.11"/>
			<path fill="none" stroke="#3A3A3A" stroke-miterlimit="10" d="M1991.6-82.47c-19.5,23.77-39.56,47.09-58.28,71.48
				c-11.73,15.29-16.35,33.39-16.24,53.32c0.13,21.21,3.91,41.7,7.11,62.43c2.13,13.81,3.17,27.88,3.55,41.87
				c0.97,35.62,8.34,69.6,25.6,100.63c16.31,29.31,39.11,35.27,67.93,31.28c7.87-1.09,15.72-2.36,23.57-3.55"/>
			<path fill="none" stroke="#3A3A3A" stroke-miterlimit="10" d="M270.99-83.36c-8.37,31.18-18,61.91-34.14,89.98
				c-7.02,12.21-15.33,23.64-22.53,35.76c-9.6,16.16-19.81,32.1-27.74,49.11c-10.81,23.22-28.57,39.46-47.39,55.16
				c-40.51,33.8-80.87,67.77-121.38,101.58c-20.73,17.3-41.24,34.98-65.46,47.27"/>
			<path fill="none" stroke="#3A3A3A" stroke-miterlimit="10" d="M2045.72,808.94c-24.15-5.65-48.22-11.69-72.48-16.81
				c-20.67-4.36-41.6-8.23-62.82-6.24c-33.7,3.16-46.71,27.13-42.69,57.81c4.52,34.49,28.91,50.32,57.54,61.46
				c24.54,9.54,48.77,6.08,72.4-3.6c16.2-6.64,32.05-14.17,48.05-21.3"/>
			<path fill="none" stroke="#3A3A3A" stroke-miterlimit="10" d="M244.8-83.36c-6.3,45.81-29.85,82.89-57.71,117.59
				c-14.2,17.69-24.7,37.51-33.8,58.09c-11.26,25.46-29.93,44.45-49.98,62.25C79.17,176,54.57,196.93,30.03,217.91
				c-23.52,20.11-46.45,41.05-74.14,55.37c-1.16,0.6-1.78,2.3-2.66,3.49"/>
			<path fill="none" stroke="#3A3A3A" stroke-miterlimit="10" d="M301.55-82.47c-4.36,12.18-9.78,24.1-12.85,36.61
				c-4.46,18.17-8.65,36.65-10.35,55.24c-1.95,21.3,8.21,53.43,35.5,60.25c5.56,1.39,12.58-0.31,18.17-2.56
				c15.38-6.2,30.58-12.96,45.42-20.4c19.15-9.6,38.55-19.01,56.57-30.56c12.26-7.85,22.79-18.77,33.29-29.16
				c12.99-12.87,25.86-26.01,37.39-40.22c7.23-8.91,11.9-19.98,17.72-30.09"/>
			<path fill="none" stroke="#3A3A3A" stroke-miterlimit="10" d="M2010.8-82.47c-4.95,5.65-9.99,11.2-14.82,16.95
				c-13.44,16-26.68,32.17-40.2,48.1c-22.82,26.89-26.73,58.48-20.74,91.8c6.12,34.04,13.22,67.92,20.95,101.61
				c5.28,22.98,13.58,44.87,31.23,61.56c9.37,8.86,20.24,13.66,33.18,13.4c8.44-0.17,16.88-0.03,25.32-0.03"/>
			<path fill="none" stroke="#3A3A3A" stroke-miterlimit="10" d="M222.11-83.36c-2.21,26.08-11.08,49.92-25.53,71.16
				c-12.04,17.69-26.91,33.37-38.8,51.15c-11.96,17.88-22.91,36.69-32.28,56.12c-12.01,24.89-29.83,44.66-49.31,62.99
				C57.36,175.74,37.4,192.18,17.81,209c-19.4,16.66-38.44,33.87-61.92,44.68c-1.16,0.53-1.78,2.29-2.66,3.48"/>
			<path fill="none" stroke="#3A3A3A" stroke-miterlimit="10" d="M2045.72,363.23c-33.58,14.54-65.57,32.1-96.04,52.58
				c-15.72,10.57-26.37,25.22-30.28,43.75c-3.8,17.97-3,36.33,1.49,54.32c6.79,27.21,18.76,51.25,42.01,67.58
				c7.82,5.49,16.74,8.92,26.96,8.33c18.6-1.08,37.24-1.33,55.86-1.92"/>
			<path fill="none" stroke="#3A3A3A" stroke-miterlimit="10" d="M1652.89,1340.22c10.65-7.24,18.1-16.23,18.44-30.31
				c0.47-19.43-19.12-37.57-41.11-31.1c-13.25,3.9-26.07,9.35-39.37,13.07c-8.15,2.28-16.79,2.92-25.27,3.7
				c-21.52,1.98-43.04,4.51-64.6,5.14c-17.13,0.5-34.34-1.28-51.49-2.49c-9.17-0.64-18.23-2.24-27.08,1.85
				c-9.47,4.37-14.63,11.62-14.81,22.31c-0.1,6.24-0.02,12.48-0.02,18.72"/>
			<path fill="none" stroke="#3A3A3A" stroke-miterlimit="10" d="M1226.89,1340.22c-0.87-1.19-1.61-2.52-2.64-3.54
				c-17.12-17.17-23.89-39.21-27.83-62.43c-2.21-12.99-2.72-26.33-5.49-39.17c-6.89-31.96-31.58-41.45-58.3-36.48
				c-20.93,3.9-38.22,14.88-53.36,30.11c-16.07,16.16-30.4,33.5-40.04,54.48c-6.86,14.94-12.39,30.27-10.43,47.22
				c0.38,3.33,1.68,6.55,2.55,9.81"/>
			<path fill="none" stroke="#3A3A3A" stroke-miterlimit="10" d="M180.2-83.36c-0.36,22.54-8.84,42.3-22.05,59.55
				c-11.13,14.54-23.9,27.83-36.52,41.11C104.79,35.03,94.1,56.27,84.87,78.8c-9.76,23.82-22.47,45.83-40.74,64.37
				c-26.57,26.96-54.19,52.43-86.5,72.15c-1.71,1.05-2.94,2.91-4.4,4.4"/>
			<path fill="none" stroke="#3A3A3A" stroke-miterlimit="10" d="M2044.85,1057.64c-16.27,4.32-28.51,15.4-40.97,25.93
				c-10.48,8.85-20.48,18.29-30.6,27.57c-9.32,8.54-13.06,19.24-14.34,32.04c-1.24,12.36-5.46,24.4-8.37,36.59
				c-2.91,12.18-6.96,24.22-8.44,36.58c-1.85,15.45,2.21,30.17,12.92,41.75c9.03,9.76,19,18.63,28.71,27.72
				c13.14,12.3,17.85,28.92,22.63,45.5c0.91,3.17,1.21,6.52,1.79,9.79"/>
			<path fill="none" stroke="#3A3A3A" stroke-miterlimit="10" d="M2033.5-82.47c-6.69,6.83-13.75,13.34-20,20.57
				c-14.2,16.43-28.41,32.89-41.87,49.94c-13.61,17.25-22.07,37.4-20.59,59.6c1,15.03,5.7,30.01,10.19,44.54
				c7.05,22.83,18.16,43.95,30.58,64.1c8.53,13.84,19.99,25.6,35.66,31.08c5.56,1.94,12.13,0.86,18.24,1.15"/>
			<path fill="none" stroke="#3A3A3A" stroke-miterlimit="10" d="M159.25-83.36c-4.07,30.24-21.29,51.95-43.62,70.45
				C97.12,2.43,79.14,18.52,69.51,41.51c-5.05,12.05-8.53,24.82-12.35,37.38c-9.92,32.58-29.84,57.96-55.12,79.22
				c-15.85,13.33-32.51,25.66-48.8,38.43"/>
			<path fill="none" stroke="#3A3A3A" stroke-miterlimit="10" d="M-46.77,1062.99c8.44,9.81,16.54,19.94,25.39,29.35
				c18.31,19.46,36.9,38.48,60.92,51.12c10.31,5.42,20.41,12.29,28.69,20.51c15.83,15.72,18.12,32.04-0.91,44.8
				c-11.35,7.61-25.11,11.81-38.19,16.31c-23.98,8.25-48.25,15.61-72.41,23.31c-1.41,0.45-2.9,0.61-4.36,0.91"/>
			<path fill="none" stroke="#3A3A3A" stroke-miterlimit="10" d="M2045.72,379.28c-31.23,13.99-60.91,30.52-84.61,56.22
				c-10.25,11.11-15.13,24.8-15.78,40.05c-0.74,17.15,1.58,33.29,9.3,49.19c9.9,20.38,25.92,30.86,46.62,34.36
				c14.63,2.47,29.64,2.63,44.48,3.81"/>
			<path fill="none" stroke="#3A3A3A" stroke-miterlimit="10" d="M127.83-83.36c-6.88,20.97-21.46,34.66-40.14,44.6
				c-10.85,5.78-21.62,11.72-32.3,17.82C29.47-6.12,12.5,15.62,7.57,45.93C6.65,51.62,8.4,57.79,9.12,63.72
				c4.35,35.46-13.08,59.06-40.14,77.61c-5.5,3.77-10.51,8.26-15.75,12.42"/>
			<path fill="none" stroke="#3A3A3A" stroke-miterlimit="10" d="M667.32-83.36c0,2.38,0,4.75,0,7.13c0,16.71,5.94,26.45,21.9,30.92
				c13.31,3.73,27.2,5.83,40.97,7.2c15.33,1.52,30.84,2.12,46.24,1.84c27.1-0.51,54.17-3.04,80.24-10.82
				c17.44-5.21,30.87-16.22,34.13-36.27"/>
			<path fill="none" stroke="#3A3A3A" stroke-miterlimit="10" d="M243.93,1340.22c-9.38-14.96-21.89-22.99-40.17-21.59
				c-19.14,1.47-38.4,1.87-57.6,1.85c-21.24-0.02-42.5-1.81-63.72-1.37c-12.83,0.26-25.67,2.94-38.4,5.17
				c-11.22,1.97-20.83,7.59-28.83,15.94"/>
			<path fill="none" stroke="#3A3A3A" stroke-miterlimit="10" d="M335.59-83.36c-3.49,9.81-7.66,19.42-10.3,29.46
				c-3.14,11.98-4.53,23.94-0.45,36.59C330.61,0.53,351.4,8.5,366.17,5.94c24.58-4.28,42.18-18.88,57.65-37.55
				c13.98-16.88,28.45-33.34,42.76-49.93c0.53-0.61,1.7-0.63,2.57-0.93"/>
			<path fill="none" stroke="#3A3A3A" stroke-miterlimit="10" d="M2044.85-69.1c-25.09,22.64-49.63,45.69-65.55,76.62
				c-13.78,26.77-10.33,52.53,3.67,77.53c12.63,22.55,29.94,40.05,54.9,48.17c2.55,0.83,5.23,1.22,7.85,1.81"/>
			<path fill="none" stroke="#3A3A3A" stroke-miterlimit="10" d="M2045.72,395.33c-26.12,12.2-50.92,26.54-67.09,51.79
				c-19.15,29.9-9.85,78.03,33.96,88.84c10.71,2.64,22.06,2.59,33.12,3.78"/>
			<path fill="none" stroke="#3A3A3A" stroke-miterlimit="10" d="M1191.09-83.36c-3.49,9.21-7.19,18.35-10.43,27.65
				c-7.1,20.32,5.44,46.73,27.01,50.88c11.54,2.22,22.96,1.39,33.08-3.86c24.37-12.63,43.37-30.5,48.98-59.51
				c0.97-5.03,1.76-10.1,2.63-15.15"/>
			<path fill="none" stroke="#3A3A3A" stroke-miterlimit="10" d="M2045.72-45.03c-23.2,18.24-42.76,38.93-49.97,69.48
				c-4.14,17.57,0.22,33.01,10.14,46.15c10.24,13.57,22.93,25.32,39.83,30.57"/>
			<path fill="none" stroke="#3A3A3A" stroke-miterlimit="10" d="M-46.77,501.4c4.95,8.02,10.2,15.87,14.78,24.1
				c14.3,25.68,23.98,52.58,23.97,82.87c0,13.45-8.78,21.03-18.72,23.92c-6.77,1.96-13.93,2.53-20.91,3.71"/>
			<path fill="none" stroke="#3A3A3A" stroke-miterlimit="10" d="M2044.85,414.05c-15.42,9.79-31.08,19.36-41,35.67
				c-14.15,23.27-7.95,49.53,17.51,60.42c7.66,3.27,16.22,4.34,24.37,6.42"/>
			<path fill="none" stroke="#3A3A3A" stroke-miterlimit="10" d="M-47.64,671.66c17.08,7.29,21.47,23.8,22.99,39.28
				c2.09,21.33,3.23,43.62-9.09,63.19c-3.92,6.23-8.66,11.93-13.03,17.87"/>
			<path fill="none" stroke="#3A3A3A" stroke-miterlimit="10" d="M1367.43-83.36c6.99,17.55,21.07,26.8,37.57,32.88
				c6.48,2.39,13.27,4.7,20.06,5.22c12.2,0.94,20.78-5.51,24.29-17.64c1.91-6.61,2.46-13.63,3.63-20.46"/>
			<path fill="none" stroke="#3A3A3A" stroke-miterlimit="10" d="M2045.72,1128.06c-7.57,3.86-15.46,7.18-22.63,11.71
				c-13.41,8.47-17.13,22.68-9.7,40.01c7.45,17.37,16.82,33.29,31.45,45.45"/>
			<path fill="none" stroke="#3A3A3A" stroke-miterlimit="10" d="M48.39-82.47c-11.64,6.24-23.95,11.46-34.77,18.94
				C-7.25-49.12-27.27-33.44-47.64-18.29"/>
			<path fill="none" stroke="#3A3A3A" stroke-miterlimit="10" d="M2043.98-14.72c-4.36,6.54-9.1,12.85-13.03,19.65
				c-12.09,20.94-3.66,47.5,14.77,58.79"/>
			<path fill="none" stroke="#3A3A3A" stroke-miterlimit="10" d="M753.74-82.47c21.06,13.5,42.32,12.14,63.75,0.94
				c1.27-0.66,2.89-0.64,4.34-0.94"/>
			<path fill="none" stroke="#3A3A3A" stroke-miterlimit="10" d="M2044.85,631.55c-5.82,2.97-12.08,5.3-17.33,9.1
				c-4.93,3.57-8.82,8.4-6.34,15.9c2.64,8.03,8.97,10.1,15.84,11.46c2.8,0.55,5.8,0.09,8.71,0.09"/>
			<path fill="none" stroke="#3A3A3A" stroke-miterlimit="10" d="M-46.77,542.41c0.29,2.08,0.19,4.32,0.94,6.21
				c5.79,14.61,6.82,29.14-0.03,43.72c-0.51,1.08-0.61,2.36-0.9,3.55"/>
			<path fill="none" stroke="#3A3A3A" stroke-miterlimit="10" d="M-46.77,1134.3c2.04,4.46,4.04,8.93,6.12,13.37
				c1.4,3,2.86,5.97,4.36,8.92c6.82,13.34-0.79,18.66-11.36,17.83"/>
			<path fill="none" stroke="#3A3A3A" stroke-miterlimit="10" d="M2045.29,444.35c-0.73,1.78-1.12,3.82-2.23,5.31
				c-9.65,12.88-9.35,18.62,1.8,30.35"/>
			<path fill="none" stroke="#3A3A3A" stroke-miterlimit="10" d="M814.85,1340.67c-2.04,0.15-4.64,1.19-6.01,0.29
				c-5.48-3.63-10.43-3.63-15.91,0c-1.37,0.91-3.97-0.14-6.01-0.29"/>
			<path fill="none" stroke="#3A3A3A" stroke-miterlimit="10" d="M2045.29,1312.59c-0.73,2.38-1.61,4.72-2.15,7.14
				c-1.54,6.81-2.94,13.66-4.39,20.5"/>
			<path fill="none" stroke="#3A3A3A" stroke-miterlimit="10" d="M636.76,309.75c-30.3,5.83-51.02,25.17-68.14,49.89
				c-14.14,20.42-28.4,40.58-37.72,64.12c-8.54,21.58-6.66,42.73-1.51,64.27c6.59,27.57,15.68,53.94,36.72,73.92
				c11.23,10.66,23.97,18.06,40.08,18.98c17.48,1.01,31.13-7.22,41.57-19.22c13.63-15.66,25.58-33.03,36.8-50.64
				c13.08-20.52,14.38-43.38,8.04-66.71c-10.09-37.17-20.44-74.26-30.48-111.45c-3.53-13.08-11.11-21.2-24.5-23.16"/>
			<path fill="none" stroke="#3A3A3A" stroke-miterlimit="10" d="M556.45,691.27c-7.86,2.67-16.61,3.91-23.38,8.33
				c-12.72,8.32-19,30.36-13.07,45.96c6.59,17.32,14.04,34.44,22.7,50.77c9.99,18.83,14.78,38.23,9.04,58.86
				c-2.72,9.77-8.14,19.12-13.88,27.56c-5.58,8.21-12.72,15.49-19.93,22.35c-11.57,11-16.91,25.15-17.72,40.25
				c-0.48,9.05,3.06,18.86,6.68,27.51c9.42,22.54,23.44,42.2,41.82,57.88c25.16,21.47,51.91,20.59,77.5-0.83
				c15.01-12.57,21.66-30.45,26.15-48.97c8.72-35.97,22.9-69.58,39.06-102.65c9.12-18.67,16.26-38.65,21.83-58.76
				c7.91-28.56,1.24-54.08-19.65-75.77c-26.89-27.92-59.25-43.93-97.01-48.85c-13.03-1.7-26.18-2.46-39.27-3.65"/>
			<path fill="none" stroke="#3A3A3A" stroke-miterlimit="10" d="M119.97,707.32c-16.16,3.42-29.49,10.94-38.5,25.79
				c-7.86,12.96-11.8,27.03-12.92,41.96c-1,13.34-2.27,26.79-1.61,40.1c1.14,22.98,6.17,45.07,19.85,64.2
				c8.15,11.4,19.5,18.01,32.31,22.25c16.55,5.48,33.11,10.89,49.76,16.03c18.94,5.85,35.62,15.89,51.55,27.59
				c6.34,4.66,13.2,8.63,20.04,12.52c30.26,17.24,57.05-0.32,68.15-26.67c11.15-26.45,6.09-49.34-13.18-69.56
				c-17.25-18.09-29.48-39.41-39.33-62.38c-7.98-18.62-16.14-37.34-29.72-52.53c-19.17-21.42-43.95-32.67-71.52-37.32
				c-11.14-1.88-22.66-1.4-34.01-1.99"/>
			<path fill="none" stroke="#3A3A3A" stroke-miterlimit="10" d="M579.15,714.45c-5.24,1.78-10.87,2.82-15.63,5.5
				c-11.28,6.33-16.18,17.62-12.11,30.1c5.03,15.42,10.86,30.64,17.44,45.45c6.36,14.33,10.85,28.77,11.28,44.65
				c0.66,24.34-7.6,45.95-18.48,66.84c-4.1,7.87-8.98,15.32-13,23.23c-12.26,24.14-1.91,47.55,14.86,63.17
				c3.83,3.57,8.36,6.67,13.07,8.89c17.48,8.24,34.98-1,44.27-19.6c8.8-17.63,15.34-36.43,23.92-54.2
				c11.05-22.88,23.35-45.13,34.7-67.86c7.54-15.09,12.2-31.33,13.89-48.11c2.47-24.6-7.23-44.94-24.4-61.37
				c-17.34-16.6-37.33-29.11-61.03-33.84c-9.13-1.82-18.59-1.93-27.91-2.83"/>
			<path fill="none" stroke="#3A3A3A" stroke-miterlimit="10" d="M133.94,728.71c-9.47,2.76-19.14,4.11-27.23,11.39
				c-13.18,11.87-18.91,27.29-20.47,43.9c-2.28,24.27,0.35,47.81,15.22,68.74c9.96,14.02,23.18,22.47,38.65,27.31
				c16.92,5.29,34.21,9.43,51.47,13.47c18.44,4.32,36.43,9.79,53.22,18.84c5.5,2.96,10.34,2.52,13.84-2.8
				c1.17-1.77,1.8-5.33,0.85-6.94c-14.22-23.89-17.21-50.93-21.79-77.63c-3.49-20.39-10.29-39.88-21.85-56.97
				c-14.44-21.35-35.69-32.44-60.11-37.42c-6.83-1.39-13.94-1.31-20.93-1.9"/>
			<path fill="none" stroke="#3A3A3A" stroke-miterlimit="10" d="M121.72,307.97c-34.4,12.06-62.34,33.26-84.68,62.4
				c-14.12,18.42-10.58,47.8,1.99,64.9c5.59,7.61,12.85,14.91,20.93,19.39c11.1,6.15,23.72,0.23,31.94-12.18
				c9.36-14.13,18.9-28.4,25.99-43.74c7.91-17.1,13.76-35.3,19.24-53.42c2.16-7.14,1.79-15.46,0.94-23.05
				c-0.96-8.61-6.51-13.82-15.48-14.29"/>
			<path fill="none" stroke="#3A3A3A" stroke-miterlimit="10" d="M603.59,746.54c-13.08,5.76-15.87,11.19-12.15,25.83
				c3.42,13.47,7.49,26.76,11.27,40.13c4.95,17.47,6.04,35.46,7.04,53.48c0.22,3.88,0.5,7.96,1.8,11.55
				c4.79,13.21,11.75,16.25,22.29,6.83c18.16-16.22,29.21-37.13,33.69-62.02c7.23-40.2-30.85-75.16-63.07-75.81"/>
			<path fill="none" stroke="#3A3A3A" stroke-miterlimit="10" d="M865.48,769.72c-23.83,5.41-32.19,22.96-33.98,45.47
				c-0.44,5.61-0.74,11.39,0.06,16.91c2.5,17.15,13.96,27.12,33.92,30.33c11.97,1.92,29.77-6.79,34.93-16.93
				c14.75-28.93-1.24-67.61-29.69-74.03c-1.51-0.34-2.92-1.16-4.37-1.75"/>
			<path fill="none" stroke="#3A3A3A" stroke-miterlimit="10" d="M982.46,304.4c-17.19,3.56-31.58,12.04-42.74,25.88
				c-10.9,13.51-15.67,33.38-8.16,48.25c6.92,13.68,28.91,22.71,47.33,12.2c18.57-10.59,27.24-28.68,32.35-48.9
				c0.74-2.93,1.39-5.91,1.73-8.91c2.11-18.37-6.92-28.52-25.28-28.52c-1.46,0-2.91,0-4.36,0"/>
			<path fill="none" stroke="#3A3A3A" stroke-miterlimit="10" d="M1930.49,808.94c-6.69,2.67-14.13,4.23-19.93,8.24
				c-15.46,10.68-13.3,34.36-2.71,46.98c20.45,24.36,50.19,29.9,80.1,16.61c12.31-5.47,23.75-14.02,33.96-23.09
				c11.16-9.91,9.64-17.02-2.35-26.49c-13.45-10.62-29.49-15.04-45.49-18.34c-13.92-2.87-28.45-2.73-42.71-3.92"/>
			<path fill="none" stroke="#3A3A3A" stroke-miterlimit="10" d="M151.4,256.27c-25.1,6.94-44.73,23.42-64.51,39.33
				c-19.31,15.53-38.63,31.19-56.63,48.25C12.6,360.58-2.37,380.34,0.85,406.85c1.63,13.42,7.17,26.73,12.93,39.13
				c5.56,11.98,13.05,23.19,20.8,33.9c9.31,12.86,21.93,20.48,38.25,20.68c12.59,0.15,22.63-5.56,29.46-15.37
				c9.05-13.01,17.65-26.62,24.41-40.97c11.13-23.61,21.02-47.85,30.69-72.13c7.96-19.99,14.07-40.61,15.89-62.34
				c0.82-9.84,2.99-19.6,3.15-29.43c0.09-5.62-1.63-11.86-4.32-16.8c-4.18-7.68-12.13-7.88-19.85-7.26"/>
			<path fill="none" stroke="#3A3A3A" stroke-miterlimit="10" d="M1013.88,254.48c-16.76,2.6-32.25,8.38-47.24,16.75
				c-36.46,20.38-60.89,50.3-68.43,92.08c-4.29,23.73,4.5,44.7,31.96,55.82c26.92,10.9,51.66,5.59,73.32-14.8
				c13.35-12.57,22.25-28.33,31.1-43.92c11.46-20.21,20.09-42.14,31.95-62.08c14.12-23.74-0.77-37.44-22.15-41.84
				c-9.62-1.98-19.74-1.42-29.63-2.02"/>
			<path fill="none" stroke="#3A3A3A" stroke-miterlimit="10" d="M1403.22,568.26c-29.77,4.84-52.09,23.16-72.17,43.97
				c-13.24,13.73-27.72,27.35-33.42,46.97c-2.62,9.02-4.18,17.81-2.05,27.68c6.44,29.7,18.12,55.83,43.96,72.96
				c21.85,14.48,33.49,14.08,49.71-10.61c17.47-26.6,36.11-52.13,59.19-74.17c11.07-10.58,21.21-22.87,25.29-38.2
				c8.13-30.54-6.38-59.05-39.15-66.55c-9.82-2.25-20.31-1.44-30.5-2.04"/>
			<path fill="none" stroke="#3A3A3A" stroke-miterlimit="10" d="M1485.28,249.13c-14.88,4.49-21.01,16.81-25.24,30.33
				c-9.17,29.3-7.71,57.65,9.61,83.71c11.65,17.54,27.11,30.39,47.96,34.7c11.8,2.44,23.99,2.62,34.82-3.58
				c14.95-8.56,19-19.15,14.65-40.81c-6.29-31.31-22.05-57.88-43.31-81.24c-9.64-10.58-20.25-19.25-34.12-23.07
				c-1.09-0.3-2.32-0.04-3.48-0.04"/>
			<path fill="none" stroke="#3A3A3A" stroke-miterlimit="10" d="M1054.04,883.82c-25.87,7.54-49.01,20.39-70.82,36.39
				c-16.26,11.93-25.74,28.79-35.73,45.59c-12.78,21.5-26.7,42.26-47.2,56.92c-11.62,8.31-24.21,15.24-36.58,22.39
				c-18.89,10.91-34.73,24.72-41.73,46.45c-3.45,10.72-6.7,21.82-7.7,32.96c-1.67,18.62-2.36,37.44-1.69,56.12
				c0.37,10.47,3.39,21.15,6.88,31.12c3.62,10.33,13.39,13.59,24.21,11.82c25.34-4.14,49.78-11.39,71.41-25.34
				c27.97-18.02,55.22-37.27,82.09-56.97c21.73-15.93,37.8-37.71,53.23-59.66c13.11-18.64,31.14-26.77,52.48-30.42
				c12.41-2.12,24.88-5.27,36.59-9.89c12.06-4.76,15.6-14.11,12.3-26.44c-5.35-19.97-14.1-38.48-24.5-56.11
				c-10.33-17.5-21.18-34.7-32.35-51.66c-3.74-5.68-8.72-10.75-13.93-15.12c-7.42-6.23-16.21-9.38-26.08-8.15"/>
			<path fill="none" stroke="#3A3A3A" stroke-miterlimit="10" d="M170.6,218.83c-26.84,6.47-48.15,23.17-68.82,40.29
				c-31.1,25.76-62.06,51.82-91.44,79.56c-13.45,12.7-26.39,26.96-32.9,45.87c-4.9,14.24-4.97,28,1.3,41
				c14.28,29.57,28.92,59.15,49.71,84.66c18.21,22.34,42.4,29.14,69.65,22.21c19.33-4.92,30.52-19.68,36.6-38.17
				c12.25-37.25,27.4-73.31,41.62-109.77c8-20.51,12.57-42.5,17.69-64.06c4.55-19.12,8.01-38.54,11.41-57.92
				c2.35-13.36,1.91-26.45-7.74-37.44c-7.36-8.38-17.11-5.76-26.21-6.22"/>
			<path fill="none" stroke="#3A3A3A" stroke-miterlimit="10" d="M1714,972.96c-5.24,1.19-10.55,2.11-15.7,3.61
				c-16.16,4.72-29.43,13.84-38.33,28.53c-6.56,10.83-6.18,22.44-0.94,33.8c9.3,20.16,22.61,37.53,36.63,54.4
				c12.12,14.58,25.46,27.28,42.68,35.86c18.72,9.32,37.63,11.12,57.73,6.99c26.13-5.37,52.31-10.52,78.58-15.06
				c9.71-1.68,19.8-0.98,29.64-2.08c8.21-0.91,16.5-2.18,24.41-4.5c11.57-3.39,13.9-9.62,10.6-21.26
				c-8.75-30.85-31.23-49.95-56.16-65.6c-29.52-18.55-62.17-30.7-94.91-42.36c-23.85-8.5-47.98-13.99-73.37-12.35"/>
			<path fill="none" stroke="#3A3A3A" stroke-miterlimit="10" d="M1738.44,1001.48c-3.2,0.59-6.49,0.88-9.59,1.83
				c-29.05,8.92-37.77,26.77-24.88,55.9c7.55,17.07,18.7,32.83,35.34,43c14.32,8.75,29.34,11.94,46.3,10.13
				c22.41-2.4,43.51-8.61,63.58-18.39c7.37-3.59,14.74-8.82,19.88-15.18c6.62-8.2,1.12-24.57-11.17-33.42
				c-11.92-8.59-24.26-17.15-37.57-22.99c-17.1-7.5-35.17-12.91-53.17-17.93c-8.89-2.48-18.55-2.06-27.86-2.95"/>
			<path fill="none" stroke="#3A3A3A" stroke-miterlimit="10" d="M1729.71,168.91c-20.03,4.6-24.33,22.26-28.51,38.41
				c-8.2,31.7-3.25,61.36,19.02,86.28c8,8.96,17.43,15.62,30.43,16.4c12.72,0.77,22.79-9.04,26.97-19.91
				c5.63-14.66,7.01-30.1,3.45-45.38c-5.05-21.69-10.91-43.19-24.27-61.56c-6.57-9.04-14.66-14.89-26.21-14.25"/>
			<path fill="none" stroke="#3A3A3A" stroke-miterlimit="10" d="M989.44,1012.18c-13.93,3.2-25.42,11.31-36.61,19.69
				c-21.9,16.39-45.05,30.65-69.01,43.61c-20.99,11.36-35.01,28.15-39.32,52.58c-2.72,15.44-0.53,29.88,9.77,41.78
				c7.82,9.03,18.7,9.46,29.53,7.2c20.51-4.26,38.34-14.85,55.82-25.9c12.82-8.1,25.57-16.5,37.5-25.88
				c27.13-21.33,37.39-50.46,33.82-84.52c-0.93-8.88-2.89-18.88-11.1-24.88c-2.67-1.95-6.32-2.5-9.52-3.69"/>
			<path fill="none" stroke="#3A3A3A" stroke-miterlimit="10" d="M448.2,158.21c-25.19,8.67-39.79,27.52-46.99,52.64
				c-4.94,17.24,1.85,32.62,11.4,46.15c9.04,12.8,21.99,21.54,36.53,26.69c12.92,4.58,24.76-0.69,33.8-9.79
				c15.3-15.41,23.45-34.31,23.98-56.86c0.4-17.14-3.38-31.87-14.98-44.66c-11.87-13.1-26.66-15.52-42.86-14.18"/>
			<path fill="none" stroke="#3A3A3A" stroke-miterlimit="10" d="M1720.98,122.55c-19.86,4.58-29.6,20.16-35.38,37.58
				c-5.41,16.27-7.51,33.71-10.86,50.67c-4.64,23.56-1.16,46.37,8.9,67.64c12.5,26.44,30.24,48.99,57.54,60.41
				c22.35,9.36,41.78,0.85,54.77-23.83c10.06-19.11,12.29-39.9,11.63-61.46c-0.85-28.05-7.47-54.69-15.83-81.13
				c-8.19-25.9-24.43-42.94-50.73-48.85c-6.17-1.39-12.77-0.76-19.17-1.05"/>
			<path fill="none" stroke="#3A3A3A" stroke-miterlimit="10" d="M1378.78,117.21c-7.57,3.27-15.96,5.33-22.54,10.04
				c-17.62,12.64-16.62,29.92-3.54,46.92c10.65,13.84,25.39,22.39,40.92,29.51c23.38,10.71,32.83,30.19,33.14,55.27
				c0.17,13.67-0.58,27.37,0.15,41c1.9,35.51,11.46,68.07,37.45,93.58c15.38,15.09,33.81,23.33,54.91,27.09
				c15.42,2.75,30.8,2.63,44.37-3.46c24.67-11.06,33.79-29.86,24.24-60.91c-5.97-19.42-15.31-37.86-24.17-56.22
				c-13.43-27.83-30.88-53.17-50.71-76.54c-11.95-14.09-24.95-27.7-39.36-39.03c-14.88-11.71-27.12-25.27-38.2-40.43
				c-9.28-12.7-20.79-22.8-36.61-25.77c-6.24-1.17-12.78-0.74-19.18-1.03"/>
			<path fill="none" stroke="#3A3A3A" stroke-miterlimit="10" d="M1385.76,85.11c-13.09,2.97-26.28,5.6-39.26,9.02
				c-10.32,2.72-20.8,5.5-30.49,9.9c-17.69,8.02-35.42,9.37-54.25,5.31c-19.52-4.21-39.05-6.14-57.65,5.06
				c-12,7.22-18.92,16.92-18.18,31.32c0.45,8.94-0.01,18.46,2.92,26.6c4.84,13.43,18.53,18.26,32.77,13.45
				c5.94-2.01,11.62-4.81,17.49-7.05c11.9-4.54,23.58-10.16,35.87-13c9.3-2.15,19.06,2.05,25.95,8.68
				c24.25,23.35,48.41,46.85,71.54,71.34c14.87,15.74,18.81,36.99,22.92,57.75c4.76,24.03,9.54,48.03,19.97,70.47
				c13.12,28.22,35.13,45.99,62.95,56.95c30.24,11.92,61.83,14.26,93.32,8.62c31.7-5.67,46.36-36.13,40.57-62.13
				c-5.98-26.87-17.71-50.95-30.22-74.69c-20.55-39.01-42.55-77.22-63.45-116.03c-14.14-26.25-30.26-51.11-48.13-74.8
				c-13.61-18.05-31.18-27.94-54.1-26.85c-9.87,0.47-19.78,0.08-29.68,0.08"/>
			<path fill="none" stroke="#3A3A3A" stroke-miterlimit="10" d="M1696.54,79.77c-16.04,5.44-23.01,18.59-27,33.89
				c-7.17,27.47-10.79,55.57-14.24,83.75c-3.02,24.64-1.9,48.61,5.48,72.22c7.55,24.14,22.28,43.79,38.46,62.34
				c12.41,14.23,26.79,26,43.51,34.96c21.66,11.61,46.26,1.87,58.66-13.42c15.24-18.78,21.41-41.04,25.09-64.29
				c1.86-11.77,3.7-23.79,3.31-35.63c-0.54-16.38-2.92-32.73-5.01-49.03c-1.96-15.2-4.98-30.27-6.82-45.48
				c-4.11-33.97-22.97-54.9-54.22-65.01c-13.87-4.48-27.79-8.95-41.94-12.31c-7.86-1.86-16.24-1.42-24.39-2.01"/>
			<path fill="none" stroke="#3A3A3A" stroke-miterlimit="10" d="M1616.23,543.3c-15.02,9.37-21.37,24.06-21.55,41.01
				c-0.16,15.14,1.88,30.32,3.26,45.45c1.55,16.96,3.15,33.92,5.26,50.81c3.21,25.75,11.35,49.62,32.41,65.73
				c15.92,12.18,34.46,19.27,54.82,19.85c29.64,0.85,59.01-1.51,88.2-6.98c8.27-1.55,16.86-1.19,25.29-1.96
				c15.21-1.4,22.72-9.73,22.7-24.93c-0.03-23.7-6.08-46.01-16.77-66.76c-7.79-15.12-21.24-25.24-35.71-32.89
				c-29.97-15.85-57.3-35.82-85.58-54.37c-17.95-11.77-36.96-21.9-55.86-32.07c-4.46-2.4-10.36-2.01-15.6-2.9"/>
			<path fill="none" stroke="#3A3A3A" stroke-miterlimit="10" d="M287.58,1140.54c-7.27,2.97-14.77,5.48-21.78,9
				c-19.03,9.57-28.21,25.32-28.05,47.16c0.27,36.94,19.69,66.89,53.36,80.13c22.08,8.68,43.75-0.78,56.05-21.16
				c10.56-17.49,9.17-35.52,4.69-53.54c-2.92-11.74-7.77-23.41-13.91-33.79c-10.97-18.57-26.95-29.77-49.49-27.8"/>
			<path fill="none" stroke="#3A3A3A" stroke-miterlimit="10" d="M1684.32,33.41c-25.48,6-36.38,24.77-39.03,49.06
				c-2.36,21.56-2.32,43.37-3.82,65.04c-1.38,19.93-4.76,39.82-4.75,59.73c0.01,16.64,2.59,33.51,5.92,49.87
				c6.47,31.8,24.05,57.9,44.43,81.94c12.65,14.92,26.08,29.26,40.19,42.72c12.04,11.48,25.75,20.51,43.48,20.79
				c24.75,0.39,41.49-11.65,53.35-33.03c11.41-20.58,15.65-43.08,18.13-66.03c2.27-21.04,4.79-42.17,4.97-63.28
				c0.14-16.62-3.22-33.27-4.82-49.92c-0.83-8.59-0.89-17.27-1.86-25.84c-1.79-15.78-3.04-31.71-6.26-47.2
				c-4.99-23.94-21.25-37.43-43.41-44.67c-23.06-7.53-45.59-16.07-66.55-29.04c-11.52-7.13-24.82-11.77-39.09-10.13"/>
			<path fill="none" stroke="#3A3A3A" stroke-miterlimit="10" d="M783.42,15.58c-9.89,1.78-19.96,2.9-29.64,5.5
				c-14.31,3.84-25.56,12.13-29.61,27.51c-3.28,12.44,2.2,23.21,10.59,30.92c15.22,13.97,31.81,26.38,47.78,39.49
				c5.31,4.36,10.87,8.51,15.65,13.43c13.4,13.8,10.46,20.01,0.76,32.76c-13.09,17.22-32.1,25.44-52.24,30.25
				c-14.31,3.42-29.04,5.05-43.61,7.31c-22.47,3.48-39.38,15.49-54.4,32.75c-18.02,20.69-37.5,40.19-57.52,58.88
				c-19.08,17.82-35.4,37.87-50.28,59.16c-10.77,15.41-20.38,31.72-29.76,48.06c-19.17,33.39-19.36,67.87-5.44,103.4
				c13.97,35.64,35.74,64.46,67.3,85.58c24.03,16.08,59.93,16.56,82.19-5.28c22.22-21.81,41.01-46.45,56.24-73.44
				c11.37-20.15,10.3-42.59,3.18-64.89c-6.85-21.44-13.8-43.04-18.1-65.1c-4.4-22.57-7.11-46.17,5.13-67.5
				c4.03-7.02,10.87-12.69,17.28-17.86c12.64-10.2,28.36-11.69,43.56-13.32c19.64-2.11,35.03-10.33,45.4-27.8
				c11.84-19.95,21.92-40.79,27.59-63.39c1.8-7.18,0.49-15.49-0.73-23.06c-1.56-9.64-6.97-19.27-6.19-28.5
				c1.07-12.69,6.1-25.1,9.94-37.47c4.6-14.84,9.24-30.03,6.6-45.43c-3.92-22.89-15.04-33.02-39.86-38.34
				c-6.92-1.48-13.96-2.42-20.94-3.61"/>
			<path fill="none" stroke="#3A3A3A" stroke-miterlimit="10" d="M778.18-11.16c-2.62,0.59-5.24,1.7-7.86,1.7
				c-23.4-0.01-45.94,4.44-67.17,14.44c-20.28,9.55-36.54,27.53-35.73,48.93c0.56,14.8,8.26,26.77,17.51,37.3
				c7.67,8.73,16.92,15.98,25.08,24.29c4.52,4.6,8.92,9.6,12.14,15.17c5.4,9.32,3.59,16.9-6.07,21.95
				c-8.45,4.41-17.78,7.3-26.97,9.93c-15.99,4.56-30.45,11.97-41.74,24.31c-12.8,14-24.46,29.1-36.83,43.52
				c-15.88,18.53-32.61,36.35-47.85,55.41c-28.56,35.72-56.96,71.62-76.14,113.96c-10.29,22.72-18.26,45.81-18.4,71.34
				c-0.14,26.41,8.84,49.42,25.71,68.39c17.12,19.25,35.55,37.52,54.98,54.32c16.97,14.67,36.93,23.98,59.95,26.43
				c26.69,2.84,49-5.32,66.16-25.42c19.84-23.25,38.54-47.56,56.75-72.17c9.44-12.76,14.26-28.49,12-44.35
				c-2.04-14.27-7.05-28.24-11.94-41.9c-8.08-22.58-16.51-44.95-15.56-69.59c1.04-27.11,15.67-44.45,42.78-48.08
				c11.31-1.51,22.77-1.93,34.02-3.73c20.5-3.27,32.98-17.5,42.74-34.69c12.43-21.87,25.01-43.67,36.54-66.03
				c8.52-16.53,13.83-33.78,10.04-53.45c-5.2-26.99-3.91-54.56-3.77-81.96c0.07-14.86,1.41-29.88-0.28-44.53
				c-3.22-27.91-14.93-37.05-41.67-41.55c-18.88-3.18-38.35-2.76-57.55-3.95"/>
			<path fill="none" stroke="#3A3A3A" stroke-miterlimit="10" d="M1066.26,537.95c-32.85,8.34-64.06,20.99-94.35,36.41
				c-25.62,13.04-32.11,36.32-27.78,60.73c6.34,35.76,30.94,52.84,62.79,61.43c29.44,7.95,56.27,2.19,78.41-19.66
				c14.49-14.3,19.88-33.41,21.84-53.35c1.22-12.41,1.85-24.96,1.67-37.42c-0.12-8.34-1.57-16.78-3.41-24.93
				c-3.84-17.01-11.89-23.2-28.69-23.2c-3.2,0-6.4,0-9.6,0"/>
			<path fill="none" stroke="#3A3A3A" stroke-miterlimit="10" d="M523.28,669.88c-17.58,3.47-30.74,13.18-34.49,31.29
				c-2.3,11.09-1.81,23.3-0.14,34.63c3.43,23.25,16.61,42.4,27.5,62.53c9.07,16.75,15.57,34.91,5.06,53.21
				c-5.42,9.43-14.21,16.85-21.5,25.15c-7.84,8.93-17.27,16.87-23.21,26.96c-9.8,16.64-8.19,35.14-2.96,53.27
				c8.49,29.42,24.4,54.68,42.87,78.37c6.65,8.53,14.07,16.53,21.81,24.06c12.33,11.98,27.87,18.65,44.39,16.66
				c42.98-5.2,72.5-25.05,84.63-73.64c4.64-18.57,6.38-38.11,12.75-55.97c9.35-26.19,21.88-51.18,32.66-76.85
				c7.84-18.67,16.57-36.82,21.35-56.94c9.96-41.92-4.67-72.85-35.24-95.48c-27.47-20.34-58.87-30.23-91.67-36.53
				c-15.42-2.96-30.76-6.59-46.29-8.7c-12.09-1.64-24.42-1.4-36.64-1.99"/>
			<path fill="none" stroke="#3A3A3A" stroke-miterlimit="10" d="M1391,529.04c-11.06,2.08-22.36,3.28-33.11,6.45
				c-15.36,4.53-31.22,8.73-45.25,16.23c-23.3,12.47-48.13,20.19-72.66,29.01c-27.79,9.99-44.39,34.53-41.78,63.29
				c1.7,18.69,4.66,37.41,13.1,54.32c14.34,28.71,27.32,58.34,47.18,83.72c7.4,9.46,15.71,18.84,25.36,25.68
				c20.27,14.38,41.29,27.78,62.77,40.2c18.67,10.79,39.27,16.14,60.98,14.4c22.48-1.81,37.31-12.82,40.03-39.15
				c1.86-18.05,1.64-36.34,3.87-54.33c2.05-16.53,7.87-32.14,18.15-45.45c8.44-10.93,16.73-22.12,26.27-32
				c21.3-22.05,27-47.92,21.87-77.72c-2.94-17.11-7.02-33.59-14.99-49.01c-9.34-18.08-25.33-25.67-43.66-30.38
				c-22.17-5.7-44.69-5.4-67.24-5.25"/>
			<path fill="none" stroke="#3A3A3A" stroke-miterlimit="10" d="M1467.82-21.85c-14.69,3.11-19.27,16.15-22.29,27.74
				c-9.4,36.01-36.15,48.38-67.67,54.01c-20.72,3.71-41.82,5.44-62.82,7.27c-25.86,2.25-51.82,3.31-77.67,5.57
				c-20.71,1.81-41.43,3.97-61.96,7.21c-20.01,3.15-31.24,19.53-33.13,39.04c-1.52,15.71-1.84,31.56-3.72,47.22
				c-1.91,15.84-5.41,31.47-7.61,47.28c-2.53,18.1-3.81,36.64,13.17,48.78c10.09,7.21,20.65,14.6,33.88,15.45
				c8.07,0.52,14.62-2.25,20.08-8.09c11.37-12.16,22.49-24.58,34.12-36.47c9.25-9.47,20.81-15.45,33.13-19.61
				c17.67-5.97,31.97,2.39,44.36,13.46c25.73,22.99,43.11,51.52,48.78,86.34c1.57,9.66,1.15,19.91-3.2,29.39
				c-4.43,9.65-16.14,14.47-29.72,11.54c-34.06-7.35-68.11-14.78-102.14-22.29c-11.02-2.43-23.51,5.18-25.28,16.08
				c-2.62,16.13-2.54,32.16,1.63,48.15c4.71,18.03,11.83,24.28,29.75,23.99c22.7-0.36,45.42-0.64,68.08-1.88
				c18.66-1.03,37.23-3.9,55.89-4.94c6.9-0.38,14.23,1.27,20.88,3.48c17.33,5.75,34.64,11.68,51.5,18.7
				c24.52,10.23,49.58,17.85,76.01,20.34c19.49,1.84,39.11,2.74,58.45,5.61c17.55,2.6,33.57-0.1,47.97-10.17
				c15.68-10.97,23.01-26.89,24.67-46.22c1.74-20.15-5.85-37.85-13.53-55.15c-9.59-21.64-21.69-42.1-31.91-63.47
				c-14.39-30.1-28.5-60.35-41.86-90.94c-10.06-23.02-17.29-47.2-20.88-72.17c-2.17-15.11,1.78-29.91,5.73-44.58
				c3.38-12.56,6.95-25.42,7.69-38.31c1.54-26.78-11.37-46.39-35.34-56.45c-11.29-4.74-22.36-6.48-34.17-5.93"/>
			<path fill="none" stroke="#3A3A3A" stroke-miterlimit="10" d="M621.05,375.71c-14.37,2.92-21.91,14.34-27.66,25.99
				c-12.03,24.35-20.59,49.92-24.21,77.36c-2.4,18.22,0.2,34.64,9.22,49.89c12.14,20.54,31.93,24.15,48.34,7.66
				c17.45-17.54,31.66-38.15,35.65-64.59c2.53-16.74-1.9-31.54-7.44-46.35c-4.54-12.16-10.29-23.85-15.59-35.7
				c-3.45-7.71-9.88-11.74-17.44-14.27"/>
			<path fill="none" stroke="#3A3A3A" stroke-miterlimit="10" d="M1094.2,382.85c-11.34,2.9-19.7,9.72-26.27,19.56
				c-9.39,14.06-18.65,28.08-23.53,44.61c-3.15,10.67,3.34,19.63,13.99,17.72c30.91-5.55,51-31.12,52.26-59.61
				c0.59-13.4-4.36-20.26-15.57-22.28"/>
			<path fill="none" stroke="#3A3A3A" stroke-miterlimit="10" d="M1406.72,546.87c-10.48,2.08-21.48,2.74-31.3,6.57
				c-15.02,5.87-30.18,12.45-43.55,21.4c-21.12,14.14-42.8,26.52-66.51,35.46c-13.82,5.21-27.14,12.46-31.24,28.45
				c-3.01,11.76-2,24.04,2.42,35.58c12.37,32.29,26.17,64.03,48.16,90.78c22.46,27.32,48.57,50.19,82.7,61.8
				c14.56,4.96,27.66,4.06,39.27-6.45c8.73-7.91,11.19-19.08,13.13-30.24c3.47-19.94,6.38-40.2,16.79-57.83
				c7.52-12.75,16.36-24.74,25.25-36.57c7.02-9.34,15.3-17.69,22.54-26.87c24.85-31.54,15.51-85.92-14.8-106.91
				c-11.33-7.84-24.02-11.94-37.53-13.34c-8.12-0.84-16.29-1.23-24.44-1.83"/>
			<path fill="none" stroke="#3A3A3A" stroke-miterlimit="10" d="M1661.62,625.31c-15.85,5.53-21.52,17.54-21.96,33.87
				c-0.62,23.37,4.97,43.97,22.86,59.69c10.72,9.42,23.36,15.08,37.5,14.97c11.65-0.09,23.4-1.45,34.89-3.53
				c12.24-2.22,22.37-9.36,29.4-19.64c2.51-3.67,3.38-10.72,1.67-14.76c-4.03-9.53-9.46-18.37-18.74-24.37
				c-20.05-12.95-39.85-26.33-59.35-40.12c-7.97-5.64-16.36-6.6-25.41-6.1"/>
			<path fill="none" stroke="#3A3A3A" stroke-miterlimit="10" d="M1411.95,600.35c-22.83,4.97-36.88,19.61-43.5,41.94
				c-1.31,4.44-1.75,9.69-0.79,14.17c1.63,7.6,6.22,13.94,18.14,10.88c17.11-4.4,31.52-13.19,43.55-26.05
				c6.87-7.35,12.05-15.96,7.82-26.63c-4.33-10.95-13.98-13.5-24.34-14.3"/>
			<path fill="none" stroke="#3A3A3A" stroke-miterlimit="10" d="M1045.31,578.96c-16.81,3.32-32,10.24-44.46,22.35
				c-10.65,10.36-16.94,22.83-12.19,38.23c5.31,17.18,18.15,26.27,34.84,28.34c27.9,3.46,45.11-8.96,52.89-32.88
				c2.96-9.1,4.11-19.85,2.53-29.23c-3.17-18.84-13.15-28.97-32.75-26.82"/>
			<path fill="none" stroke="#3A3A3A" stroke-miterlimit="10" d="M1219.9,855.29c-14.73,5.01-19.72,16-20.26,31.19
				c-1.16,33.24,13.86,56.25,42.17,70.25c27.54,13.62,55.84,25.6,83.68,38.6c8.39,3.92,16.6,8.39,24.43,13.37
				c25.93,16.5,50.95,2.14,62.32-20.43c5.93-11.78,8.94-23.15,2.88-34.74c-3.46-6.62-9.29-12.89-15.54-16.87
				c-29.35-18.67-59.05-36.78-88.94-54.54c-27.71-16.46-56.95-28.25-89.87-26.83"/>
			<path fill="none" stroke="#3A3A3A" stroke-miterlimit="10" d="M1341.24-83.36c5.47,24.69,16.52,46.53,32.28,65.98
				c1.59,1.96,3.04,4.07,4.37,6.24c10.47,17.09,2.69,29.64-11.37,34.62c-7.9,2.8-16.27,6.12-24.4,6.03
				c-27.29-0.3-53.65,5.12-79.35,13.11c-23.96,7.45-48.2,7.5-72.53,6.56c-14.02-0.54-28.05-3.34-41.89-6.1
				c-17.49-3.49-31.04-0.57-36.41,10.97c-3.53,7.59-5.68,16.43-6.12,24.84c-0.91,17.48,0.38,35.08-0.46,52.57
				c-0.83,17.28-2.14,34.62-9.36,50.85c-7.81,17.57-20.94,28.22-39.38,30.96c-11.77,1.74-23.91,2.61-35.74,1.75
				c-24.67-1.8-46.21,5.79-63.5,22.79c-19.56,19.22-41.11,36.94-55.14,61.31c-13.09,22.73-24.29,46.42-33.53,71.15
				c-4,10.72-4.21,21.28-4.07,32.19c0.03,2.08-0.06,4.54,0.93,6.18c14,23.45,32.54,40.58,60.13,45.59
				c26.52,4.82,50.74-1.07,73.32-15.26c15.9-9.99,27.03-24.77,37.56-40.07c10.45-15.17,20.41-30.74,31.59-45.33
				c9.14-11.93,20.83-21.09,35.63-25.08c11.63-3.13,27.37,1.14,34.07,12.44c11.78,19.86,16.5,40.88,13.25,64.23
				c-4.16,29.85-15.84,55.42-36.82,76.67c-11.02,11.17-25.51,15.27-39.37,20.31c-23.66,8.6-47.48,16.86-71.6,23.95
				c-12.36,3.64-25.47,5.06-38.35,6.34c-13.6,1.36-27.41,0.69-40.99,2.14c-13.48,1.45-25.39,15.07-28.02,29.21
				c-4.17,22.44,0.48,44.1,4.32,66c6.53,37.23,29.15,61.17,60.34,78.42c15.65,8.66,31.81,16.24,49.77,17.63
				c10.1,0.79,20.5,0.61,30.5-0.94c14.23-2.2,27.75-6.82,41.25-12.68c27.52-11.95,38.86-34.76,44.08-62.01
				c3.13-16.36,3.29-33.29,5.61-49.85c2.7-19.27,4.3-38.8,14.52-56.3c5.4-9.24,11.65-16.95,20.24-23.12
				c20.8-14.95,41.64-29.87,61.94-45.51c17-13.09,35.35-20.74,56.76-23.58c18.35-2.44,35.64,1.35,53.3,3.32
				c18.97,2.11,37.84,5.26,56.76,7.89c17.45,2.43,34.89,4.97,52.38,7.07c12.76,1.54,25.61,2.36,38.4,3.65
				c30.78,3.11,61.51,6.36,89.96,20.39c6.1,3.01,12.7,5.02,19.17,7.19c11.84,3.96,20.58,0.63,29.58-12.5
				c13.01-18.99,23.73-39.29,27.91-62.36c3.13-17.24,0.92-34.13-6.92-49.87c-15.27-30.68-31.54-60.87-46.02-91.94
				c-14.65-31.45-28.65-63.38-37.44-97.14c-3.82-14.67-4.34-30.23-6.42-45.38c-3.37-24.55,3.4-48.19,6.09-72.21
				c2.19-19.59,5.97-39.25,5.62-58.82c-0.36-19.53-5.88-38.24-21.14-52.77c-14.8-14.09-33.01-24.17-45.55-40.84"/>
			<path fill="none" stroke="#3A3A3A" stroke-miterlimit="10" d="M1088.96-82.47c-9.6,2.97-19.06,6.67-28.84,8.76
				c-19.1,4.09-38.55,6.53-57.54,11.05c-22.16,5.27-44.37,10.57-64.73,21.93c-12.91,7.21-19.87,17.61-20.8,32.25
				c-0.87,13.65-1.27,27.33-1.8,41c-1.19,30.9-2.6,61.8-3.36,92.71c-0.28,11.27,0.87,22.59,1.64,33.87
				c2.03,29.75-7.62,55.46-24.27,79.49c-10.14,14.64-18.3,30.72-27.25,46.21c-6.49,11.24-11.88,23.28-19.43,33.7
				c-12.51,17.27-30.94,23.11-51.27,25.35c-15.7,1.73-32.71,2.13-43.47,16.86c-3.62,4.96-6.25,11.57-6.94,17.7
				c-2.4,21.48,5.78,40.35,15.35,58.86c5.83,11.27,10.77,23.04,15.78,34.73c7.25,16.9,3.09,32.65-6.21,47.13
				c-6.24,9.71-13.47,18.83-20.88,27.66c-14.88,17.75-30.38,34.96-45.26,52.71c-14.11,16.83-29.12,32.46-51.58,36.37
				c-33.55,5.84-65.3-1.24-94.1-18.87c-24.06-14.72-46.93-31.51-69.91-47.99c-11.84-8.49-23.69-17.36-33.91-27.74
				c-13.67-13.88-17.55-31.79-17.04-51.48c0.75-28.45,13.67-52.82,23.02-78.4c5.29-14.47,11.91-28.42,17.27-42.86
				c6.6-17.77,16.98-33.04,27.93-48.17c19.83-27.38,38.67-55.52,58.73-82.72c13.8-18.71,29.67-35.83,43.25-54.68
				c8.91-12.36,17.11-25.89,22.37-40.15c3.77-10.22,3.49-22.58-1.17-33.65c-7.84-18.61-16.51-36.55-32.23-50.01
				c-11.93-10.21-25.2-13.8-40.22-10.56c-18.39,3.97-34.93,12.59-51.62,21.14c-14.65,7.51-29.89,14.06-45.36,19.63
				c-22.86,8.24-42.8,19.95-57.67,40.21c-16.44,22.39-31.9,45.3-39.88,72.34c-5.19,17.57-8.79,35.63-13.28,53.43
				c-3.3,13.08-10.45,24.1-19.26,33.8c-17.45,19.23-26.37,41.86-27.87,67.82c-1.08,18.72-2.49,37.43-3.42,56.16
				c-0.84,16.92-0.81,33.9-1.91,50.8c-1.13,17.27-6.7,33.38-13.77,49.08c-7.94,17.65-16.1,35.29-22.53,53.54
				c-6.13,17.39-9.55,35.76-15.24,53.34c-7.73,23.91-20,33.54-46.12,33.63c-27.64,0.1-55.41-4.32-82.9-2.74
				c-38.91,2.24-69.02,19.29-79.22,62.82c-4.93,21.04-7.34,42.71-10.69,64.13c-3.23,20.66-6.08,41.64-15.17,60.46
				c-8.53,17.67-23.97,27.22-43.35,29.59c-3.51,0.43-6.99,1.17-10.48,1.76"/>
			<path fill="none" stroke="#3A3A3A" stroke-miterlimit="10" d="M2045.72,336.49c-18.04,7.43-36.1,14.82-54.12,22.3
				c-23.92,9.93-48.59,17.04-74.21,20.44c-7.23,0.96-14.54,1.33-21.82,1.82c-18.18,1.22-30.78-9.7-32.02-28.53
				c-1.25-18.93-0.28-38.01-0.28-57.03c0-21.99,0.14-43.98-0.08-65.96c-0.08-7.43-1.28-14.85-1.63-22.29
				c-1.25-26.44-1.8-52.93-3.76-79.32c-1.02-13.77-3.56-27.58-6.95-40.97c-5.65-22.36-20.12-37.06-41.74-43.63
				c-22.22-6.75-44.03-14.05-62.9-28.52c-5.59-4.28-11.92-7.73-18.29-10.73c-31.77-14.96-83.24-3.34-97.23,38.12
				c-6.25,18.52-10.28,36.81-10.17,56.29c0.2,33.58,0.43,67.16-0.04,100.73c-0.6,42.68,11.23,81.81,34.45,116.56
				c23.31,34.87,49,68.08,74.03,101.73c4.55,6.11,10.82,10.92,16.47,16.13c9.65,8.9,21.79,11.06,34.03,11.42
				c11.32,0.33,22.69-1.08,34.04-1.57c21.3-0.92,32.06,11.5,35.27,26.84c8.76,41.89,25.65,80.09,44.92,117.62
				c6.77,13.19,9.06,27.83,9.79,42.72c0.56,11.6,1.23,23.24,2.65,34.76c3.1,25.09,19.47,39.85,41.07,46.83
				c30.91,9.99,62.72,17.08,94.16,25.34c1.36,0.36,2.9,0.05,4.35,0.05"/>
			<path fill="none" stroke="#3A3A3A" stroke-miterlimit="10" d="M2044.85,964.94c-20.37,5.05-40.88,9.58-61.07,15.29
				c-22.01,6.23-43.6,3.58-64.56-3.05c-33.96-10.75-66.88-24.4-97.85-42.54c-20.96-12.27-35.41-29.72-42.97-53.43
				c-2.87-9.02-7.42-17.62-12.13-25.85c-10.51-18.35-28.17-22.67-47.03-22.17c-28.64,0.75-51.72,14.15-70.71,35.48
				c-15.76,17.71-34.28,30.81-57.63,35.6c-10.13,2.08-20.4,3.39-30.54,5.44c-25.65,5.2-41.61,21.73-49.67,46.34
				c-10.67,32.58-27.11,61.77-47.12,89.2c-10.25,14.05-17.43,29.83-15.75,48.04c2.6,28.28,24.06,50.63,51.42,50.7
				c11.27,0.03,20.37-6.45,28.74-13.33c11.54-9.48,23.2-18.22,37.54-23.29c19.3-6.82,38.72-7.45,56.59,1.53
				c15.87,7.97,31.45,18.03,44.45,30.18c39.48,36.93,83.51,66.32,132.13,88.77c20.61,9.51,32.47,27.09,42.79,46.38
				c5.31,9.93,11.12,19.58,16.53,29.45c9.63,17.58,25.79,27.48,41.96,37.36c0.58,0.35,1.71-0.23,2.58-0.38"/>
			<path fill="none" stroke="#3A3A3A" stroke-miterlimit="10" d="M1816.13,1341.11c-6.34-31.86-23.87-56.34-47.97-76.71
				c-24.33-20.57-47.97-42.02-72.62-62.19c-17.69-14.48-35.74-28.87-55.14-40.71c-14.11-8.61-30.63-15.48-47.66-6.53
				c-8.34,4.38-16.11,10.12-23.58,15.98c-10.48,8.22-19.73,18.28-30.8,25.48c-16.84,10.97-35.68,11.82-54.83,6.52
				c-33.19-9.19-63.35-24.05-87.2-50.02c-8.75-9.53-16.35-20.15-24.55-30.21c-11.03-13.53-25.72-14.76-40.99-11.44
				c-15.86,3.45-31.35,8.71-47.2,12.18c-17.86,3.91-35.97,4.42-54.11,1.12c-6.02-1.1-12.2-1.39-18.32-1.84
				c-26.37-1.96-52.6-2.66-78.59,4.32c-27.71,7.44-51.66,21.94-74.15,39.37c-29.01,22.47-54.1,49.3-79.32,75.88
				c-11.61,12.24-22.03,25.72-32.36,39.15c-13.4,17.42-17.59,37.96-17.55,59.65"/>
			<path fill="none" stroke="#3A3A3A" stroke-miterlimit="10" d="M2044.85,349.86c-17.17,7.73-34.38,15.36-51.49,23.2
				c-21.86,10.01-43.96,19.56-65.4,30.45c-25.55,12.97-38.29,33.67-38.93,64.01c-0.86,40.32,11.6,75.63,30.83,109.75
				c13.18,23.39,25.49,47.29,34.44,72.91c5.16,14.78,16.9,23.92,32.11,25.69c21.72,2.53,40.09,12.73,58.46,23.42"/>
			<path fill="none" stroke="#3A3A3A" stroke-miterlimit="10" d="M201.16-83.36c-1.49,25.09-9.95,47.77-24.62,67.61
				c-11.93,16.13-26.21,30.45-37.99,46.67c-10.16,13.99-19.63,28.87-27.02,44.53c-15.23,32.31-34.08,61.79-60.66,85.27
				C26.79,182,1.62,201.99-23.26,222.31c-5.39,4.41-11.63,7.72-17.37,11.71c-2.2,1.53-4.1,3.52-6.14,5.31"/>
			<path fill="none" stroke="#3A3A3A" stroke-miterlimit="10" d="M147.03,761.69c-17.15,1.3-28.33,11.31-31.05,27.7
				c-4.16,25.1,8.51,44.71,32.04,53.07c6.54,2.32,13.44,4.83,21.81,2.54c23.68-6.47,34.34-27.52,24.42-50.37
				c-9.02-20.76-24.03-32.03-46.35-32.94"/>
			<path fill="none" stroke="#3A3A3A" stroke-miterlimit="10" d="M1502.74,306.18c-16.69,10.18-16.34,20.07-6.74,38.2
				c2.81,5.31,8.03,9.71,12.98,13.33c5.43,3.97,11.65,6.12,18.26,1.14c7.47-5.64,8.51-8.47,6.09-18.79
				c-3.52-15-10.54-27.09-25.36-32.94c-1.36-0.54-2.9-0.63-4.35-0.92"/>
			<path fill="none" stroke="#3A3A3A" stroke-miterlimit="10" d="M825.32,924.82c-8.56,3.32-14.31,9.69-18.31,17.84
				c-4.06,8.27-1.26,16.47,4.28,21.46c6.69,6.03,10.98,7.42,19.17,2.43c6.9-4.2,14.05-9.02,18.88-15.32
				c2.91-3.79,3.17-11.41,1.75-16.47c-1.58-5.64-6.9-9.68-13.55-9.91c-3.78-0.13-7.56-0.02-11.35-0.02"/>
			<path fill="none" stroke="#3A3A3A" stroke-miterlimit="10" d="M481.38,637.79c-24.94,6.4-36.95,26.11-45.1,48.25
				c-7.3,19.86-17.15,37.84-30.02,54.23c-13.22,16.83-20.12,36.91-29.01,56.07c-10.62,22.9-19.15,34.67-39.87,31.88
				c-10.14-1.37-20.51-4.88-29.57-9.77c-16.05-8.65-25.3-24.28-34.19-39.83c-4.4-7.7-8.95-15.33-13.06-23.19
				c-16.99-32.5-45.28-49.01-78.58-58.9c-16.9-5.02-33.91-9.44-51.53-9.55c-14.14-0.09-28.31,0.98-41.05,8.72
				c-12.57,7.64-21.42,18.45-27.04,32.12c-7.5,18.24-10.39,37.48-11.3,57.05c-0.86,18.41-1.94,36.86-1.62,55.26
				c0.37,21.71,1.84,43.41,3.41,65.07c1.03,14.16,12.87,22.17,29.56,23.38c21.59,1.57,43.13,4.18,64.6,7.03
				c26.06,3.46,47.31,17.73,68.14,32.83c11,7.97,22.11,15.61,35.72,18.93c20.81,5.06,38.99-0.07,54.96-13.61
				c19.04-16.13,30.86-37.53,40.25-60.52c5.72-14.01,11.8-27.86,17.4-41.92c7.62-19.16,32.3-28.81,52.41-19.55
				c10.77,4.96,13.81,15.18,15.69,25.82c3.35,18.99,6.04,38.11,9.74,57.02c5.15,26.29,17.38,49.95,29.99,72.88
				c13.32,24.22,29.11,47.15,45.19,69.61c16.73,23.35,41.03,29.09,67.87,25c19.18-2.92,37.35-9.29,55.09-17.54
				c23.52-10.92,36.39-29.94,41.63-54.6c4.43-20.89,6.97-42.19,10.72-63.24c4.25-23.85,12.94-46.13,23.45-67.79
				c12.78-26.31,27.11-52.09,37.05-79.51c10.6-29.23,11.58-60.62,1.94-90.6c-7.88-24.52-26.91-38.45-51.16-44.63
				c-11.85-3.02-23.78-5.78-35.79-8c-22.36-4.14-44.93-7.15-67.16-11.86c-19.4-4.11-38.49-9.76-57.64-15
				c-19.81-5.41-39.04-13.81-60.24-11.55"/>
			<path fill="none" stroke="#3A3A3A" stroke-miterlimit="10" d="M1251.01,258.93c-3.5,11.12,0.13,23.65,7.16,32.86
				c7.03,9.21,17.04,15.56,27.33,20.66c8.09,4.01,16.49,7.36,25.1,10.03c2.92,0.9,6.01,1.73,8.97,1c6.33-1.55,9.09-9.27,9.28-15.92
				c0.41-14.2-6.12-27.93-15.46-38.45c-8.91-10.04-21.93-20.29-33.94-26.15C1268.03,237.39,1254.53,247.76,1251.01,258.93z"/>
			<path fill="none" stroke="#3A3A3A" stroke-miterlimit="10" d="M414.18,650.74c0.09,33.53-17.57,66.57-45.22,84.64
				c-6.06,3.96-14.28,7.15-20.07,2.79c-3.59-2.7-4.96-7.5-5.63-12.01c-1.61-10.94-0.38-22.3,3.55-32.6
				c2.68-7.04,6.65-13.89,6.72-21.44c0.08-9.51-6.02-17.86-8.08-27.13c-3.1-13.98,4.36-29.65,17.04-35.8
				c11.9-5.76,27.15-1.76,37.9,5.2C411.56,621.62,414.15,638.27,414.18,650.74z"/>
			<path fill="none" stroke="#3A3A3A" stroke-miterlimit="10" d="M1364.25,1031.19c-4.93-2.15-10.57-3.04-15.7-1.43
				c-7.47,2.34-12.79,10.03-13.21,18c-0.42,7.97,3.7,15.85,9.98,20.6c6.28,4.76,14.46,6.53,22.23,5.63
				c4.21-0.49,8.53-1.84,11.47-4.97c2.62-2.79,3.83-6.69,4.26-10.53C1384.96,1043.51,1376.71,1036.62,1364.25,1031.19z"/>
			<path fill="none" stroke="#3A3A3A" stroke-miterlimit="10" d="M1271.21,903.92c-4.87-1.41-10.39-2.55-14.76,0.06
				c-5.67,3.39-6.55,11.93-3.5,17.87c3.05,5.94,8.88,9.79,14.64,13.02c24.14,13.55,51.08,20.88,77.72,28.09
				c5.47,1.48,12.45,2.46,15.74-2.24c2-2.85,1.67-6.89,0.02-9.96c-1.65-3.07-4.4-5.35-7.18-7.4c-13.29-9.8-28.48-14.16-42.73-21.86
				C1298.06,914.42,1285.65,908.1,1271.21,903.92z"/>
			<path fill="none" stroke="#3A3A3A" stroke-miterlimit="10" d="M289.78,1081.88c3.21-0.86,6.39-1.98,9.71-2.17
				c3.31-0.19,6.89,0.71,9.06,3.27c4,4.7,1.43,12.19-2.56,16.91c-11.19,13.25-30.91,16.21-47.34,11.27
				c-8.47-2.55-16.59-7.08-22.09-14.13c-3.31-4.25-8.84-14.57-5.98-20.29c3.88-7.75,10.17-1.19,15.66,1.32
				C259.77,1084.24,275.41,1085.75,289.78,1081.88z"/>
			<path fill="none" stroke="#3A3A3A" stroke-miterlimit="10" d="M905.11,1102.85c-2.37,2.16-4.69,4.47-6.19,7.33
				c-1.51,2.86-2.11,6.37-0.92,9.37c1.8,4.54,7.23,6.68,11.99,6.04c4.76-0.64,8.95-3.42,12.83-6.31
				c8.62-6.43,16.59-13.78,23.73-21.88c1.93-2.18,3.89-4.66,4.04-7.59C951.83,1065.08,909.22,1099.1,905.11,1102.85z"/>
			<path fill="none" stroke="#3A3A3A" stroke-miterlimit="10" d="M988,972.25c0.42,4.87,5.58,7.85,10.32,8.52
				c4.74,0.67,9.68-0.08,14.25,1.38c10.74,3.43,14.5,16.82,15.75,28.24c1.25,11.42,2.53,24.58,11.82,31.07
				c5.6,3.92,13.01,4.31,19.59,2.63c6.59-1.68,12.56-5.2,18.43-8.67c9.23-5.47,19.15-11.76,22.69-22.04
				c2.42-7.05,1.37-14.78,0.3-22.16c-1.98-13.62-4.02-27.44-9.61-39.97c-5.59-12.53-15.3-23.81-28.16-27.93
				c-12-3.84-25.3-0.99-36.46,4.93c-8.6,4.57-21.98,12.6-27.17,21.26C995.33,956.87,987.25,963.65,988,972.25z"/>
			<path fill="none" stroke="#3A3A3A" stroke-miterlimit="10" d="M1031.15,962.82c0.8,4.27,4.66,7.19,8.46,9.14
				c3.8,1.95,8,3.5,10.81,6.77c4.94,5.75,3.88,14.53,4.55,22.34c0.58,6.81,9.12,9.08,13.01,3.53c4.72-6.73,7.31-15.03,7.01-23.3
				c-0.4-11.07-7.04-25.99-17.67-30.67C1049.06,947,1028.74,950.02,1031.15,962.82z"/>
			<path fill="none" stroke="#3A3A3A" stroke-miterlimit="10" d="M798.2,600.04c-14.33,13.25-23.02,31.61-30.17,49.95
				c-2.07,5.31-4.07,10.78-4.24,16.49c-0.17,5.71,1.78,11.79,6.28,15.17c5.97,4.49,14.7,2.97,20.76-1.38
				c6.06-4.36,10.12-10.96,14.28-17.22c4.16-6.26,8.84-12.59,15.51-15.89c8.26-4.08,18.17-2.83,26.75-6.17
				c9.56-3.72,16.59-13.47,17.23-23.9C867.19,574.85,819.27,580.56,798.2,600.04z"/>
		</g>
	</g>
</g>
</svg>
