<?xml version="1.0" standalone="no"?>
<!DOCTYPE svg PUBLIC "-//W3C//DTD SVG 20010904//EN"
 "http://www.w3.org/TR/2001/REC-SVG-20010904/DTD/svg10.dtd">
<svg version="1.0" xmlns="http://www.w3.org/2000/svg"
 width="224.000000pt" height="224.000000pt" viewBox="0 0 224.000000 224.000000"
 preserveAspectRatio="xMidYMid meet">
<metadata>
Created by potrace 1.10, written by Peter Selinger 2001-2011
</metadata>
<g transform="translate(0.000000,224.000000) scale(0.100000,-0.100000)"
fill="#000000" stroke="none">
<path d="M1290 1713 l-115 -35 -48 27 c-35 19 -55 25 -77 20 -37 -8 -63 -48
-55 -84 6 -30 25 -22 -203 -88 l-53 -15 37 -20 38 -20 128 37 128 38 56 -37
c31 -21 57 -36 57 -34 23 46 38 66 64 84 l32 22 -39 27 c-22 15 -40 30 -40 32
0 2 5 1 10 -2 6 -4 19 -1 28 7 15 12 16 11 4 -4 -29 -36 4 -31 242 39 17 5 15
8 -15 24 -44 23 -44 23 -179 -18z m-187 -35 c12 3 19 1 14 -3 -4 -5 14 -16 40
-25 27 -10 47 -23 45 -29 -1 -7 2 -10 7 -7 5 4 12 3 15 -2 6 -10 -29 -42 -45
-42 -6 0 -8 -7 -5 -17 6 -15 5 -15 -13 1 -11 10 -25 15 -31 11 -6 -3 -9 -1 -8
6 3 11 -29 19 -79 19 -28 0 -30 20 -3 27 24 6 26 19 5 27 -8 3 -12 12 -9 20 6
16 37 27 42 15 2 -4 13 -4 25 -1z"/>
<path d="M1234 1556 c-44 -44 -47 -94 -8 -125 32 -25 55 -26 94 -6 89 46 77
165 -16 165 -28 0 -44 -8 -70 -34z m106 -6 c23 -23 24 -30 9 -63 -11 -23 -47
-47 -71 -47 -22 0 -48 33 -48 61 0 18 9 35 26 48 33 26 58 27 84 1z"/>
<path d="M1254 1525 c-21 -33 -10 -58 28 -63 33 -4 60 23 56 57 -2 21 -9 27
-35 29 -25 3 -35 -2 -49 -23z m60 -20 c-8 -20 -31 -26 -31 -7 0 19 17 33 29
26 4 -3 5 -11 2 -19z"/>
<path d="M850 1467 c-25 -7 -64 -22 -85 -34 -36 -19 -40 -24 -39 -59 1 -93 97
-227 201 -281 52 -28 138 -53 179 -53 31 0 -58 107 -139 167 -46 34 -49 35
-65 18 -16 -17 -16 -17 0 -12 10 4 25 -1 34 -11 10 -9 29 -26 44 -37 15 -11
27 -23 26 -26 -1 -3 5 -13 13 -23 20 -24 7 -31 -29 -16 -29 12 -30 14 -15 30
11 12 13 20 6 25 -11 6 -12 5 -15 -16 0 -7 -11 -16 -24 -20 -14 -5 -21 -5 -17
1 6 10 -34 36 -49 32 -5 -2 -6 4 -3 12 4 11 1 13 -10 9 -11 -4 -14 -2 -9 5 4
7 3 12 -1 12 -5 0 -17 14 -27 30 -9 17 -21 28 -27 25 -5 -4 -6 2 -2 11 4 11 2
15 -4 11 -6 -4 -13 4 -15 18 -3 13 -1 22 3 19 15 -9 10 8 -6 20 -8 6 -16 20
-18 31 -1 11 -6 26 -11 33 -7 12 -4 12 15 1 22 -11 23 -11 10 4 -12 15 -11 17
5 18 11 1 23 1 27 0 5 -1 6 3 3 8 -11 18 173 36 204 20 27 -14 55 -22 67 -20
6 1 14 -3 18 -9 4 -6 -1 -7 -11 -3 -12 4 -15 3 -10 -5 4 -7 12 -12 17 -12 6 0
17 -7 25 -15 9 -8 20 -15 25 -15 6 0 3 7 -5 16 -9 8 -16 18 -16 22 0 4 19 -13
43 -38 23 -25 41 -48 39 -52 -2 -4 5 -5 14 -1 12 5 15 3 9 -6 -6 -10 -2 -11
16 -6 17 4 20 3 10 -3 -11 -8 -10 -11 5 -14 17 -3 17 -4 -4 -10 -14 -4 -20 -2
-16 4 4 6 1 9 -5 7 -7 -3 -12 -8 -11 -12 0 -4 -6 -15 -14 -23 -13 -13 -19 -13
-40 -2 -14 7 -26 18 -28 23 -2 6 -8 9 -15 9 -6 -1 -9 4 -6 11 6 16 -33 39 -50
29 -6 -4 -9 -4 -5 1 10 10 -39 48 -52 40 -5 -3 -20 1 -32 8 -28 18 -98 29 -98
16 0 -5 8 -9 17 -9 40 0 167 -76 227 -134 l61 -61 45 49 c48 52 125 94 187
102 21 2 32 2 25 -2 -6 -3 -10 -10 -6 -15 10 -17 24 -9 24 13 0 21 0 21 14 2
8 -10 10 -20 5 -22 -5 -2 -9 -8 -9 -13 0 -6 -12 -21 -26 -34 -17 -16 -22 -25
-13 -25 8 -1 2 -8 -13 -16 -16 -8 -28 -17 -28 -20 0 -3 5 -2 11 2 8 4 8 0 0
-15 -7 -11 -18 -21 -26 -21 -8 0 -15 -5 -15 -10 0 -7 -6 -7 -19 0 -29 15 -38
12 -15 -5 17 -13 15 -15 -13 -15 -5 0 -8 8 -8 18 0 11 8 17 22 16 12 0 25 6
27 13 4 9 1 11 -6 7 -7 -5 -8 -3 -3 6 6 10 11 10 20 -3 7 -10 16 -17 20 -17 4
0 2 6 -4 13 -6 8 -8 17 -4 20 3 4 -1 7 -9 7 -21 0 -83 -45 -81 -58 2 -6 -3 -9
-10 -6 -22 8 -49 -30 -41 -60 7 -31 10 -31 59 -10 51 21 123 77 160 123 33 41
81 138 73 146 -2 3 -31 10 -63 16 -65 12 -155 0 -209 -28 -26 -14 -30 -13 -38
1 -18 32 -85 87 -136 111 -64 31 -168 40 -232 22z"/>
<path d="M880 1345 c7 -8 19 -15 28 -15 8 0 12 -3 9 -7 -4 -3 -1 -13 6 -21 10
-13 8 -14 -13 -9 -14 4 -19 4 -12 1 6 -3 10 -10 7 -14 -3 -5 17 -21 44 -34 61
-31 160 -122 186 -170 13 -25 27 -36 42 -36 33 0 36 15 11 59 -52 93 -142 175
-253 234 -56 30 -73 34 -55 12z m111 -86 c7 -15 6 -17 -6 -13 -8 4 -15 14 -16
23 0 9 -3 11 -5 5 -3 -6 -16 -9 -31 -6 l-26 5 24 13 c26 13 42 6 60 -27z"/>
<path d="M1337 1278 c-60 -33 -143 -120 -132 -138 4 -7 21 2 44 22 21 18 52
41 70 50 21 12 30 22 25 30 -6 9 -3 9 9 -1 19 -15 24 -2 6 16 -7 7 -2 9 18 7
22 -3 24 -2 9 4 -26 11 -4 25 27 18 12 -3 16 -3 9 0 -6 3 -10 10 -6 15 10 17
-22 8 -79 -23z"/>
<path d="M649 831 c0 -3 0 -55 1 -116 1 -118 13 -149 54 -143 26 4 36 48 12
48 -18 0 -17 -3 -21 124 -3 83 -5 90 -24 91 -12 1 -21 -1 -22 -4z"/>
<path d="M440 700 l0 -130 28 0 c26 0 27 1 24 50 l-4 50 37 0 c45 0 92 23 100
50 4 11 3 34 0 51 -9 39 -53 59 -130 59 l-55 0 0 -130z m134 57 c14 -23 -15
-47 -56 -47 -25 0 -28 3 -28 36 0 34 1 35 36 32 22 -2 41 -10 48 -21z"/>
<path d="M1325 805 c-46 -45 -32 -79 53 -125 24 -14 42 -31 42 -41 0 -23 -39
-31 -72 -15 -24 12 -29 12 -43 -4 -16 -17 -15 -20 16 -35 75 -39 153 -5 147
65 -3 32 -9 38 -61 65 -71 37 -73 60 -4 60 65 1 82 20 34 40 -52 21 -84 19
-112 -10z"/>
<path d="M1177 768 c5 -26 4 -30 -10 -25 -13 5 -17 1 -17 -18 0 -16 6 -25 15
-25 11 0 15 -13 15 -53 0 -60 12 -77 52 -77 21 0 28 5 28 19 0 10 -9 21 -20
24 -16 4 -20 14 -20 46 0 34 3 41 20 41 14 0 20 7 20 24 0 20 -4 23 -21 19
-19 -5 -21 -3 -17 25 4 29 2 32 -23 32 -27 0 -28 -2 -22 -32z"/>
<path d="M1720 770 c0 -16 -4 -30 -10 -30 -5 0 -10 -9 -10 -21 0 -11 4 -18 9
-15 5 3 11 -22 13 -55 5 -65 15 -79 61 -79 32 0 37 24 7 40 -26 14 -30 103 -5
94 11 -5 15 1 15 20 0 18 -4 24 -15 20 -11 -5 -15 1 -15 25 0 26 -4 31 -25 31
-21 0 -25 -5 -25 -30z"/>
<path d="M775 725 c-47 -47 -19 -157 40 -156 11 1 43 1 70 2 l50 0 0 82 c0 79
-1 82 -25 88 -60 15 -110 10 -135 -16z m101 -40 c22 -34 6 -75 -29 -75 -30 0
-47 18 -47 50 0 52 48 68 76 25z"/>
<path d="M965 659 c0 -89 0 -89 26 -89 24 0 25 2 23 53 -2 59 9 87 34 87 31 0
42 -22 42 -82 0 -56 1 -58 26 -58 26 0 26 0 22 71 -5 92 -22 108 -111 108
l-62 -1 0 -89z"/>
<path d="M1524 727 c-36 -31 -38 -96 -4 -132 20 -21 31 -24 91 -23 l69 0 0 83
0 82 -37 7 c-65 10 -91 7 -119 -17z m87 -27 c23 -13 26 -62 4 -80 -20 -17 -62
-5 -70 21 -7 21 18 69 36 69 6 0 19 -5 30 -10z"/>
</g>
</svg>
